<?xml version="1.0" encoding="UTF-8" standalone="no"?>
<!DOCTYPE svg PUBLIC "-//W3C//DTD SVG 1.1//EN" "http://www.w3.org/Graphics/SVG/1.1/DTD/svg11.dtd">
<svg width="100%" height="100%" viewBox="0 0 115 100" version="1.1" xmlns="http://www.w3.org/2000/svg" xmlns:xlink="http://www.w3.org/1999/xlink" xml:space="preserve" xmlns:serif="http://www.serif.com/" style="fill-rule:evenodd;clip-rule:evenodd;stroke-linejoin:round;stroke-miterlimit:1.41421;">
    <g transform="matrix(1,0,0,1,0,-32)">
        <g transform="matrix(0.223214,0,0,0.223214,0,24.8571)">
            <path d="M416,48C416,39.16 408.84,32 400,32L336,32C327.16,32 320,39.16 320,48L320,96L416,96L416,48ZM63.91,159.99C61.4,253.84 3.46,274.22 0,404L0,448C0,465.67 14.33,480 32,480L128,480C145.67,480 160,465.67 160,448L160,288L192,288L192,128L95.84,128C78.21,128 64.39,142.37 63.91,159.99ZM448.09,159.99C447.61,142.37 433.79,128 416.16,128L320,128L320,288L352,288L352,448C352,465.67 366.33,480 384,480L480,480C497.67,480 512,465.67 512,448L512,404C508.54,274.22 450.6,253.84 448.09,159.99ZM176,32L112,32C103.16,32 96,39.16 96,48L96,96L192,96L192,48C192,39.16 184.84,32 176,32ZM224,288L288,288L288,128L224,128L224,288Z" style="fill:white;fill-rule:nonzero;"/>
        </g>
    </g>
</svg>
