<?xml version="1.0" encoding="UTF-8" standalone="no"?>
<!DOCTYPE svg PUBLIC "-//W3C//DTD SVG 1.1//EN" "http://www.w3.org/Graphics/SVG/1.1/DTD/svg11.dtd">
<svg width="100%" height="100%" viewBox="0 0 30 14" version="1.1" xmlns="http://www.w3.org/2000/svg" xmlns:xlink="http://www.w3.org/1999/xlink" xml:space="preserve" xmlns:serif="http://www.serif.com/" style="fill-rule:evenodd;clip-rule:evenodd;stroke-linejoin:round;stroke-miterlimit:1.41421;">
    <g transform="matrix(1,0,0,1,-6.32537,-77.093)">
        <g transform="matrix(1,0,0,1,0.998927,1.44323)">
            <g>
                <g>
                    <path d="M24.729,83.658C26.218,83.658 26.962,84.285 26.962,85.538C26.962,86.347 26.617,86.976 25.928,87.425C25.238,87.874 24.27,88.099 23.024,88.099C22.083,88.099 21.357,87.942 20.847,87.627C20.338,87.313 20.083,86.861 20.083,86.271C20.083,85.478 20.575,84.966 21.559,84.736C21.356,84.65 21.18,84.511 21.029,84.32C20.879,84.128 20.804,83.939 20.804,83.751C20.804,83.544 20.86,83.362 20.973,83.204C21.087,83.045 21.323,82.857 21.682,82.638C21.339,82.486 21.068,82.247 20.871,81.923C20.674,81.599 20.575,81.205 20.575,80.74C20.575,80.017 20.821,79.456 21.313,79.058C21.806,78.66 22.509,78.46 23.423,78.46C23.544,78.46 23.753,78.474 24.05,78.501C24.346,78.529 24.565,78.554 24.706,78.578L27.02,78.578L27.02,79.685L26.112,80.019C26.237,80.246 26.3,80.509 26.3,80.81C26.3,81.525 26.049,82.08 25.547,82.474C25.045,82.869 24.296,83.066 23.3,83.066C23.054,83.066 22.858,83.05 22.714,83.019C22.659,83.121 22.632,83.216 22.632,83.306C22.632,83.419 22.723,83.506 22.907,83.567C23.091,83.627 23.331,83.658 23.628,83.658L24.729,83.658ZM23.792,85.445L22.895,85.445C22.649,85.445 22.441,85.502 22.271,85.618C22.101,85.733 22.016,85.874 22.016,86.042C22.016,86.23 22.118,86.381 22.321,86.496C22.524,86.612 22.796,86.669 23.136,86.669C23.69,86.669 24.135,86.6 24.469,86.461C24.803,86.323 24.97,86.144 24.97,85.925C24.97,85.749 24.868,85.625 24.665,85.553C24.462,85.481 24.171,85.445 23.792,85.445ZM17.864,84.39C17.673,84.695 17.406,84.928 17.064,85.09C16.723,85.252 16.321,85.333 15.86,85.333C15.13,85.333 14.562,85.121 14.155,84.698C13.749,84.274 13.546,83.675 13.546,82.902L13.546,78.578L15.837,78.578L15.837,82.205C15.837,82.638 15.898,82.966 16.021,83.189C16.145,83.412 16.347,83.523 16.628,83.523C17.022,83.523 17.304,83.368 17.472,83.057C17.64,82.746 17.724,82.222 17.724,81.484L17.724,78.578L20.015,78.578L20.015,85.216L18.286,85.216L17.999,84.39L17.864,84.39ZM33.768,81.882C33.768,82.968 33.476,83.815 32.892,84.422C32.308,85.03 31.491,85.333 30.44,85.333C29.432,85.333 28.63,85.023 28.035,84.402C27.439,83.781 27.141,82.941 27.141,81.882C27.141,80.8 27.433,79.959 28.017,79.36C28.601,78.76 29.42,78.46 30.475,78.46C31.127,78.46 31.704,78.599 32.204,78.876C32.704,79.154 33.089,79.551 33.361,80.069C33.632,80.586 33.768,81.191 33.768,81.882ZM9.66,85.216L6.326,85.216L6.326,76.65L9.315,76.65C10.479,76.65 11.343,76.823 11.907,77.168C12.472,77.514 12.754,78.052 12.754,78.783C12.754,79.263 12.631,79.673 12.385,80.013C12.139,80.353 11.815,80.572 11.412,80.669L11.412,80.728C11.944,80.869 12.328,81.103 12.567,81.431C12.805,81.759 12.924,82.185 12.924,82.708C12.924,83.486 12.632,84.098 12.048,84.545C11.464,84.993 10.668,85.216 9.66,85.216ZM29.467,81.882C29.467,82.453 29.543,82.887 29.696,83.186C29.848,83.485 30.104,83.634 30.463,83.634C30.819,83.634 31.07,83.485 31.216,83.186C31.363,82.887 31.436,82.453 31.436,81.882C31.436,81.316 31.362,80.888 31.213,80.599C31.065,80.31 30.811,80.165 30.452,80.165C30.1,80.165 29.848,80.309 29.696,80.596C29.543,80.883 29.467,81.312 29.467,81.882ZM9.408,81.63L8.641,81.63L8.641,83.429L9.455,83.429C10.178,83.429 10.539,83.124 10.539,82.515C10.539,82.23 10.443,82.011 10.249,81.859C10.056,81.706 9.776,81.63 9.408,81.63ZM22.737,80.751C22.737,81.431 22.973,81.771 23.446,81.771C23.665,81.771 23.834,81.687 23.953,81.519C24.072,81.351 24.132,81.099 24.132,80.763C24.132,80.076 23.903,79.732 23.446,79.732C22.973,79.732 22.737,80.072 22.737,80.751ZM9.291,78.402L8.641,78.402L8.641,79.937L9.338,79.937C9.67,79.937 9.927,79.869 10.109,79.732C10.29,79.595 10.381,79.392 10.381,79.122C10.381,78.642 10.018,78.402 9.291,78.402Z" style="fill:white;fill-rule:nonzero;"/>
                    <path d="M9.432,75.65L9.549,75.652L9.664,75.655L9.777,75.659L9.889,75.664L9.999,75.67L10.109,75.677L10.217,75.686L10.323,75.696L10.428,75.707L10.532,75.719L10.635,75.732L10.736,75.747L10.836,75.763L10.935,75.78L11.032,75.799L11.128,75.819L11.224,75.84L11.317,75.863L11.41,75.888L11.502,75.914L11.592,75.941L11.681,75.971L11.769,76.001L11.856,76.034L11.942,76.069L12.026,76.105L12.11,76.143L12.192,76.183L12.272,76.225L12.352,76.269L12.43,76.316L12.507,76.364L12.583,76.416L12.657,76.469L12.729,76.525L12.8,76.583L12.869,76.644L12.936,76.707L13,76.772L13.063,76.839L13.123,76.909L13.18,76.98L13.235,77.054L13.288,77.13L13.337,77.207L13.384,77.286L13.428,77.367L13.469,77.449L13.508,77.532L13.527,77.578L13.546,77.578L15.837,77.578L15.935,77.582L16.032,77.597L16.127,77.621L16.22,77.654L16.308,77.696L16.392,77.746L16.471,77.805L16.544,77.87L16.61,77.943L16.668,78.022L16.719,78.106L16.761,78.195L16.78,78.249L16.8,78.195L16.842,78.106L16.892,78.022L16.951,77.943L17.017,77.87L17.089,77.805L17.168,77.746L17.252,77.696L17.341,77.654L17.433,77.621L17.529,77.597L17.626,77.582L17.724,77.578L20.015,77.578L20.113,77.582L20.21,77.597L20.305,77.621L20.397,77.654L20.486,77.696L20.57,77.746L20.649,77.805L20.722,77.87L20.788,77.943L20.846,78.022L20.897,78.106L20.903,78.119L20.969,78.076L21.043,78.029L21.119,77.985L21.196,77.942L21.275,77.902L21.354,77.864L21.435,77.827L21.516,77.793L21.598,77.76L21.682,77.729L21.766,77.7L21.851,77.673L21.937,77.648L22.024,77.624L22.112,77.602L22.2,77.582L22.289,77.563L22.379,77.546L22.47,77.531L22.562,77.517L22.654,77.505L22.748,77.495L22.842,77.485L22.936,77.478L23.032,77.471L23.128,77.467L23.226,77.463L23.324,77.461L23.426,77.46L23.495,77.461L23.571,77.464L23.65,77.468L23.737,77.473L23.924,77.487L24.141,77.506L24.36,77.527L24.552,77.548L24.718,77.568L24.798,77.58L24.784,77.578L27.02,77.578L27.118,77.582L27.215,77.597L27.311,77.621L27.403,77.654L27.492,77.696L27.576,77.746L27.655,77.805L27.727,77.87L27.793,77.943L27.852,78.022L27.902,78.106L27.922,78.149L27.959,78.124L28.05,78.068L28.142,78.014L28.236,77.963L28.331,77.915L28.428,77.869L28.526,77.825L28.625,77.784L28.726,77.746L28.828,77.71L28.931,77.677L29.035,77.646L29.14,77.618L29.246,77.592L29.353,77.569L29.461,77.548L29.57,77.529L29.68,77.513L29.791,77.499L29.903,77.487L30.015,77.477L30.129,77.47L30.243,77.465L30.359,77.461L30.474,77.46L30.549,77.461L30.623,77.462L30.697,77.465L30.771,77.468L30.844,77.473L30.917,77.478L30.99,77.485L31.062,77.493L31.134,77.501L31.206,77.511L31.278,77.522L31.349,77.534L31.42,77.547L31.49,77.561L31.561,77.576L31.63,77.592L31.7,77.609L31.769,77.628L31.838,77.647L31.906,77.668L31.974,77.69L32.041,77.713L32.108,77.737L32.175,77.762L32.241,77.788L32.306,77.815L32.371,77.843L32.436,77.873L32.5,77.904L32.563,77.935L32.626,77.968L32.689,78.002L32.751,78.037L32.812,78.073L32.872,78.11L32.932,78.148L32.991,78.188L33.049,78.228L33.107,78.269L33.163,78.311L33.219,78.355L33.274,78.399L33.328,78.445L33.381,78.491L33.434,78.538L33.485,78.587L33.536,78.636L33.585,78.686L33.634,78.737L33.682,78.789L33.729,78.842L33.775,78.896L33.819,78.951L33.863,79.006L33.906,79.063L33.948,79.12L33.989,79.178L34.029,79.236L34.067,79.296L34.105,79.356L34.142,79.417L34.178,79.479L34.213,79.541L34.246,79.604L34.279,79.668L34.311,79.733L34.342,79.798L34.371,79.864L34.4,79.93L34.427,79.997L34.454,80.064L34.479,80.132L34.503,80.2L34.526,80.269L34.548,80.338L34.569,80.408L34.589,80.478L34.608,80.549L34.625,80.62L34.642,80.691L34.657,80.763L34.672,80.835L34.685,80.908L34.698,80.981L34.709,81.054L34.72,81.127L34.729,81.201L34.737,81.276L34.744,81.35L34.751,81.425L34.756,81.501L34.76,81.576L34.764,81.652L34.766,81.729L34.768,81.805L34.768,81.883L34.767,82L34.764,82.118L34.759,82.234L34.752,82.349L34.743,82.464L34.731,82.577L34.718,82.69L34.702,82.801L34.684,82.912L34.664,83.022L34.642,83.13L34.617,83.238L34.59,83.344L34.56,83.45L34.529,83.554L34.494,83.658L34.458,83.76L34.419,83.861L34.377,83.961L34.333,84.059L34.287,84.156L34.237,84.251L34.186,84.345L34.132,84.438L34.075,84.529L34.016,84.618L33.955,84.706L33.891,84.791L33.825,84.875L33.757,84.957L33.686,85.037L33.613,85.115L33.538,85.192L33.46,85.265L33.381,85.337L33.3,85.406L33.216,85.473L33.131,85.538L33.044,85.6L32.955,85.659L32.865,85.716L32.773,85.771L32.679,85.823L32.584,85.872L32.487,85.919L32.389,85.963L32.29,86.004L32.189,86.043L32.088,86.079L31.985,86.113L31.88,86.144L31.775,86.173L31.669,86.199L31.562,86.223L31.454,86.245L31.345,86.264L31.235,86.28L31.124,86.295L31.012,86.307L30.899,86.316L30.786,86.324L30.671,86.329L30.556,86.332L30.44,86.333L30.326,86.332L30.214,86.329L30.102,86.323L29.991,86.316L29.88,86.305L29.77,86.293L29.662,86.278L29.553,86.261L29.446,86.241L29.34,86.219L29.234,86.194L29.13,86.167L29.026,86.137L28.923,86.105L28.822,86.07L28.721,86.033L28.622,85.993L28.524,85.951L28.427,85.905L28.332,85.858L28.238,85.807L28.146,85.755L28.055,85.699L27.965,85.641L27.961,85.638L27.96,85.641L27.956,85.743L27.949,85.844L27.939,85.946L27.927,86.046L27.911,86.146L27.892,86.246L27.87,86.345L27.844,86.443L27.816,86.54L27.785,86.636L27.75,86.731L27.712,86.824L27.671,86.917L27.627,87.008L27.58,87.097L27.53,87.185L27.477,87.271L27.421,87.355L27.363,87.438L27.301,87.518L27.237,87.597L27.171,87.673L27.102,87.747L27.031,87.819L26.957,87.889L26.881,87.956L26.804,88.022L26.724,88.085L26.642,88.147L26.559,88.206L26.474,88.263L26.386,88.318L26.298,88.371L26.208,88.422L26.116,88.471L26.023,88.518L25.928,88.563L25.832,88.606L25.735,88.646L25.636,88.685L25.537,88.722L25.435,88.757L25.333,88.79L25.229,88.822L25.124,88.851L25.018,88.879L24.911,88.905L24.802,88.929L24.692,88.951L24.581,88.972L24.469,88.991L24.356,89.009L24.241,89.025L24.125,89.039L24.008,89.052L23.889,89.063L23.769,89.073L23.648,89.081L23.526,89.087L23.403,89.093L23.278,89.096L23.152,89.098L23.024,89.099L22.926,89.099L22.829,89.097L22.732,89.094L22.637,89.091L22.543,89.086L22.449,89.08L22.356,89.073L22.265,89.065L22.174,89.056L22.084,89.046L21.995,89.034L21.907,89.021L21.819,89.008L21.733,88.992L21.647,88.976L21.562,88.958L21.478,88.94L21.395,88.919L21.313,88.898L21.231,88.875L21.15,88.85L21.071,88.824L20.992,88.797L20.914,88.768L20.836,88.738L20.76,88.706L20.685,88.672L20.61,88.637L20.537,88.6L20.464,88.561L20.393,88.521L20.322,88.478L20.253,88.434L20.185,88.388L20.118,88.34L20.052,88.291L19.988,88.239L19.925,88.185L19.864,88.13L19.805,88.072L19.747,88.012L19.692,87.951L19.638,87.887L19.586,87.822L19.537,87.755L19.49,87.686L19.445,87.616L19.403,87.544L19.363,87.47L19.326,87.395L19.291,87.319L19.26,87.242L19.23,87.164L19.204,87.085L19.18,87.005L19.159,86.925L19.141,86.844L19.125,86.763L19.112,86.682L19.101,86.6L19.093,86.518L19.087,86.436L19.084,86.353L19.083,86.268L19.084,86.216L18.286,86.216L18.183,86.211L18.082,86.195L17.982,86.169L17.886,86.133L17.793,86.086L17.707,86.031L17.626,85.967L17.599,85.941L17.585,85.948L17.493,85.994L17.399,86.037L17.303,86.077L17.206,86.113L17.108,86.147L17.009,86.178L16.909,86.206L16.807,86.231L16.705,86.253L16.602,86.272L16.498,86.289L16.394,86.303L16.289,86.314L16.183,86.323L16.076,86.329L15.969,86.332L15.861,86.333L15.774,86.333L15.688,86.33L15.602,86.326L15.517,86.321L15.433,86.313L15.349,86.304L15.265,86.293L15.182,86.281L15.099,86.266L15.017,86.25L14.935,86.232L14.854,86.212L14.774,86.19L14.694,86.166L14.615,86.14L14.537,86.112L14.459,86.081L14.383,86.049L14.307,86.015L14.232,85.979L14.158,85.941L14.086,85.9L14.014,85.858L13.944,85.813L13.875,85.767L13.807,85.719L13.741,85.668L13.676,85.616L13.613,85.562L13.552,85.506L13.492,85.449L13.433,85.39L13.376,85.329L13.321,85.266L13.268,85.202L13.216,85.136L13.167,85.069L13.119,85L13.086,84.949L13.078,84.958L13.012,85.026L12.945,85.093L12.875,85.157L12.804,85.22L12.731,85.28L12.656,85.339L12.58,85.396L12.502,85.451L12.423,85.504L12.343,85.555L12.261,85.604L12.178,85.65L12.093,85.695L12.008,85.738L11.921,85.779L11.833,85.818L11.744,85.855L11.654,85.89L11.563,85.923L11.471,85.954L11.378,85.984L11.284,86.011L11.189,86.037L11.093,86.061L10.996,86.083L10.899,86.103L10.8,86.121L10.701,86.138L10.601,86.153L10.5,86.167L10.398,86.178L10.295,86.189L10.191,86.197L10.087,86.204L9.982,86.209L9.875,86.213L9.768,86.215L9.664,86.216L6.326,86.216L6.228,86.211L6.131,86.197L6.036,86.173L5.944,86.14L5.855,86.098L5.771,86.048L5.692,85.989L5.619,85.923L5.553,85.851L5.495,85.772L5.445,85.688L5.403,85.599L5.37,85.507L5.346,85.411L5.331,85.314L5.326,85.216L5.326,76.65L5.331,76.552L5.346,76.455L5.37,76.36L5.403,76.267L5.445,76.178L5.495,76.094L5.553,76.015L5.619,75.943L5.692,75.877L5.771,75.818L5.855,75.768L5.944,75.726L6.036,75.693L6.131,75.669L6.228,75.655L6.326,75.65L9.317,75.65L9.432,75.65ZM23.338,78.461L23.254,78.463L23.171,78.466L23.09,78.47L23.01,78.475L22.931,78.481L22.853,78.489L22.777,78.498L22.702,78.508L22.628,78.519L22.555,78.531L22.483,78.544L22.413,78.559L22.344,78.575L22.276,78.592L22.21,78.61L22.145,78.629L22.08,78.649L22.018,78.671L21.956,78.694L21.896,78.718L21.837,78.743L21.779,78.769L21.722,78.797L21.667,78.825L21.612,78.855L21.559,78.886L21.508,78.918L21.457,78.951L21.408,78.986L21.36,79.021L21.313,79.058L21.268,79.096L21.224,79.135L21.181,79.174L21.14,79.215L21.101,79.257L21.062,79.299L21.026,79.343L20.99,79.387L20.956,79.433L20.924,79.479L20.893,79.526L20.863,79.575L20.835,79.624L20.809,79.674L20.783,79.725L20.76,79.777L20.737,79.83L20.716,79.884L20.697,79.939L20.679,79.995L20.662,80.052L20.647,80.11L20.633,80.168L20.621,80.228L20.61,80.289L20.601,80.35L20.593,80.413L20.587,80.476L20.582,80.541L20.578,80.606L20.576,80.672L20.575,80.74L20.576,80.826L20.58,80.911L20.585,80.994L20.594,81.075L20.604,81.155L20.617,81.233L20.632,81.309L20.649,81.384L20.669,81.457L20.691,81.529L20.715,81.599L20.741,81.667L20.77,81.733L20.802,81.798L20.835,81.862L20.871,81.923L20.909,81.983L20.948,82.041L20.99,82.097L21.033,82.15L21.077,82.202L21.124,82.252L21.172,82.299L21.222,82.345L21.273,82.389L21.327,82.43L21.382,82.47L21.438,82.508L21.497,82.543L21.557,82.577L21.619,82.609L21.682,82.638L21.617,82.679L21.553,82.719L21.493,82.758L21.436,82.796L21.382,82.834L21.33,82.871L21.281,82.908L21.236,82.944L21.193,82.979L21.153,83.013L21.116,83.046L21.082,83.079L21.05,83.111L21.022,83.143L20.996,83.174L20.973,83.204L20.953,83.233L20.934,83.264L20.916,83.295L20.899,83.327L20.884,83.359L20.87,83.392L20.857,83.425L20.846,83.459L20.836,83.494L20.827,83.529L20.82,83.564L20.814,83.601L20.81,83.638L20.806,83.675L20.804,83.713L20.804,83.751L20.804,83.787L20.807,83.822L20.811,83.857L20.818,83.892L20.826,83.928L20.835,83.963L20.847,83.999L20.86,84.034L20.875,84.07L20.892,84.105L20.91,84.141L20.93,84.177L20.952,84.212L20.976,84.248L21.002,84.284L21.029,84.32L21.058,84.355L21.087,84.389L21.117,84.422L21.147,84.453L21.178,84.484L21.209,84.513L21.242,84.541L21.275,84.567L21.308,84.593L21.342,84.617L21.377,84.64L21.412,84.661L21.448,84.682L21.484,84.701L21.522,84.719L21.559,84.736L21.469,84.758L21.381,84.782L21.296,84.808L21.213,84.835L21.134,84.864L21.058,84.895L20.984,84.927L20.913,84.961L20.846,84.997L20.781,85.034L20.719,85.073L20.66,85.114L20.631,85.135L20.603,85.156L20.576,85.178L20.55,85.2L20.524,85.222L20.5,85.245L20.475,85.269L20.452,85.292L20.429,85.317L20.407,85.341L20.386,85.366L20.365,85.392L20.346,85.417L20.327,85.444L20.308,85.47L20.29,85.497L20.274,85.525L20.257,85.553L20.242,85.581L20.227,85.61L20.213,85.639L20.2,85.669L20.187,85.699L20.175,85.729L20.164,85.76L20.154,85.791L20.144,85.823L20.135,85.855L20.126,85.887L20.119,85.92L20.112,85.953L20.106,85.987L20.101,86.021L20.096,86.055L20.092,86.09L20.089,86.126L20.084,86.197L20.083,86.271L20.084,86.326L20.086,86.38L20.09,86.433L20.095,86.486L20.102,86.537L20.11,86.588L20.119,86.638L20.131,86.687L20.143,86.736L20.158,86.784L20.173,86.83L20.19,86.876L20.209,86.922L20.229,86.966L20.251,87.01L20.274,87.052L20.299,87.094L20.325,87.136L20.352,87.176L20.382,87.216L20.412,87.254L20.444,87.292L20.478,87.329L20.513,87.366L20.55,87.401L20.588,87.436L20.627,87.47L20.668,87.503L20.711,87.535L20.755,87.567L20.8,87.597L20.847,87.627L20.896,87.656L20.946,87.684L20.997,87.712L21.049,87.738L21.102,87.763L21.157,87.788L21.213,87.811L21.27,87.834L21.329,87.855L21.389,87.876L21.45,87.896L21.512,87.915L21.576,87.933L21.64,87.95L21.707,87.966L21.774,87.981L21.843,87.995L21.913,88.009L21.984,88.021L22.056,88.033L22.13,88.043L22.205,88.053L22.281,88.062L22.359,88.07L22.437,88.076L22.517,88.082L22.599,88.088L22.681,88.092L22.765,88.095L22.85,88.097L22.937,88.099L23.024,88.099L23.14,88.098L23.255,88.096L23.367,88.093L23.478,88.089L23.588,88.083L23.696,88.075L23.802,88.067L23.907,88.057L24.01,88.046L24.111,88.033L24.211,88.019L24.309,88.004L24.405,87.988L24.5,87.97L24.593,87.951L24.685,87.931L24.775,87.909L24.863,87.886L24.95,87.861L25.035,87.836L25.118,87.809L25.2,87.781L25.28,87.751L25.358,87.72L25.435,87.688L25.51,87.654L25.584,87.619L25.656,87.583L25.726,87.546L25.795,87.507L25.862,87.467L25.928,87.425L25.991,87.383L26.053,87.339L26.112,87.294L26.17,87.248L26.226,87.201L26.279,87.154L26.331,87.105L26.38,87.055L26.427,87.004L26.473,86.951L26.516,86.898L26.558,86.844L26.597,86.789L26.635,86.732L26.67,86.675L26.703,86.617L26.735,86.557L26.764,86.497L26.791,86.435L26.816,86.372L26.84,86.309L26.861,86.244L26.88,86.178L26.897,86.111L26.912,86.043L26.925,85.974L26.937,85.904L26.946,85.833L26.953,85.761L26.958,85.688L26.961,85.614L26.962,85.538L26.961,85.48L26.96,85.423L26.957,85.366L26.953,85.311L26.948,85.256L26.942,85.202L26.935,85.15L26.927,85.098L26.918,85.047L26.907,84.997L26.896,84.948L26.883,84.899L26.87,84.852L26.855,84.806L26.839,84.76L26.822,84.716L26.804,84.672L26.785,84.629L26.765,84.588L26.744,84.547L26.721,84.507L26.698,84.468L26.673,84.43L26.648,84.392L26.621,84.356L26.593,84.321L26.564,84.286L26.534,84.253L26.503,84.22L26.471,84.188L26.438,84.158L26.404,84.128L26.368,84.099L26.332,84.071L26.294,84.044L26.255,84.018L26.216,83.992L26.175,83.968L26.133,83.945L26.09,83.922L26.046,83.901L26,83.88L25.954,83.86L25.907,83.841L25.858,83.823L25.809,83.806L25.758,83.79L25.706,83.775L25.653,83.761L25.599,83.748L25.544,83.735L25.488,83.724L25.431,83.713L25.372,83.704L25.313,83.695L25.253,83.687L25.191,83.68L25.128,83.674L25.065,83.669L25,83.665L24.934,83.662L24.867,83.659L24.799,83.658L24.729,83.658L23.628,83.658L23.519,83.656L23.467,83.654L23.416,83.652L23.366,83.649L23.318,83.645L23.271,83.64L23.225,83.635L23.181,83.629L23.137,83.622L23.096,83.615L23.055,83.607L23.016,83.598L22.979,83.588L22.942,83.578L22.907,83.567L22.874,83.555L22.843,83.543L22.813,83.53L22.787,83.516L22.762,83.502L22.739,83.488L22.719,83.472L22.701,83.456L22.684,83.44L22.67,83.422L22.659,83.405L22.649,83.386L22.641,83.367L22.636,83.347L22.633,83.327L22.632,83.306L22.633,83.272L22.637,83.238L22.643,83.203L22.652,83.167L22.664,83.131L22.678,83.094L22.694,83.057L22.714,83.019L22.77,83.03L22.832,83.039L22.898,83.048L22.969,83.054L23.044,83.059L23.125,83.063L23.21,83.065L23.3,83.066L23.392,83.065L23.484,83.064L23.573,83.061L23.662,83.057L23.748,83.051L23.834,83.045L23.918,83.038L24,83.029L24.081,83.019L24.161,83.008L24.239,82.996L24.316,82.983L24.391,82.968L24.465,82.953L24.538,82.936L24.608,82.918L24.678,82.899L24.746,82.879L24.813,82.857L24.878,82.835L24.941,82.811L25.004,82.786L25.065,82.76L25.124,82.733L25.182,82.705L25.238,82.675L25.293,82.645L25.347,82.613L25.399,82.58L25.45,82.546L25.499,82.51L25.547,82.474L25.593,82.437L25.638,82.398L25.681,82.359L25.723,82.319L25.764,82.277L25.803,82.235L25.84,82.192L25.876,82.148L25.911,82.103L25.944,82.057L25.975,82.01L26.006,81.963L26.034,81.914L26.061,81.864L26.087,81.814L26.111,81.762L26.134,81.71L26.156,81.656L26.175,81.602L26.194,81.547L26.211,81.49L26.226,81.433L26.24,81.375L26.253,81.316L26.264,81.256L26.273,81.195L26.281,81.133L26.288,81.071L26.293,81.007L26.297,80.942L26.299,80.877L26.3,80.81L26.299,80.754L26.297,80.699L26.293,80.645L26.288,80.591L26.281,80.539L26.273,80.487L26.264,80.437L26.253,80.387L26.24,80.338L26.226,80.289L26.211,80.242L26.194,80.196L26.176,80.15L26.156,80.106L26.135,80.062L26.112,80.019L27.02,79.685L27.02,78.578L24.706,78.578L24.649,78.569L24.586,78.56L24.436,78.541L24.258,78.522L24.05,78.501L23.843,78.483L23.67,78.471L23.596,78.466L23.53,78.463L23.472,78.461L23.423,78.46L23.338,78.461ZM23.862,85.445L23.93,85.446L23.996,85.449L24.06,85.452L24.121,85.455L24.181,85.46L24.239,85.465L24.294,85.472L24.348,85.479L24.399,85.487L24.449,85.496L24.496,85.506L24.541,85.516L24.585,85.528L24.626,85.54L24.665,85.553L24.702,85.567L24.736,85.583L24.768,85.599L24.798,85.617L24.826,85.636L24.851,85.656L24.873,85.678L24.893,85.7L24.911,85.724L24.927,85.749L24.94,85.776L24.951,85.803L24.959,85.832L24.965,85.862L24.968,85.893L24.97,85.925L24.969,85.946L24.968,85.966L24.965,85.986L24.962,86.005L24.957,86.025L24.952,86.044L24.946,86.063L24.938,86.082L24.93,86.1L24.921,86.119L24.91,86.137L24.899,86.154L24.887,86.172L24.874,86.189L24.859,86.206L24.844,86.223L24.828,86.24L24.811,86.256L24.793,86.273L24.774,86.288L24.754,86.304L24.733,86.32L24.688,86.35L24.639,86.379L24.586,86.407L24.529,86.435L24.469,86.461L24.405,86.487L24.338,86.51L24.269,86.532L24.197,86.552L24.123,86.571L24.046,86.588L23.967,86.604L23.885,86.617L23.8,86.63L23.713,86.64L23.623,86.649L23.531,86.656L23.436,86.662L23.338,86.666L23.238,86.669L23.136,86.669L23.073,86.669L23.011,86.667L22.952,86.663L22.894,86.659L22.837,86.652L22.782,86.645L22.729,86.636L22.677,86.626L22.627,86.615L22.578,86.602L22.532,86.588L22.486,86.572L22.443,86.555L22.401,86.537L22.36,86.517L22.321,86.496L22.284,86.474L22.25,86.452L22.218,86.428L22.188,86.403L22.16,86.378L22.135,86.352L22.113,86.325L22.093,86.297L22.075,86.268L22.059,86.238L22.046,86.208L22.035,86.176L22.027,86.144L22.021,86.111L22.018,86.077L22.016,86.042L22.017,86.011L22.02,85.981L22.025,85.951L22.032,85.921L22.041,85.893L22.052,85.865L22.065,85.837L22.08,85.81L22.097,85.784L22.116,85.758L22.137,85.733L22.16,85.709L22.185,85.685L22.212,85.662L22.24,85.64L22.271,85.618L22.304,85.597L22.337,85.577L22.371,85.559L22.406,85.542L22.442,85.526L22.479,85.512L22.516,85.499L22.555,85.488L22.594,85.478L22.635,85.469L22.676,85.462L22.718,85.456L22.761,85.451L22.805,85.447L22.85,85.445L22.895,85.445L23.792,85.445L23.862,85.445ZM30.377,78.461L30.28,78.464L30.185,78.468L30.091,78.474L29.998,78.482L29.907,78.492L29.817,78.503L29.728,78.517L29.641,78.532L29.555,78.548L29.471,78.567L29.388,78.587L29.306,78.609L29.226,78.633L29.147,78.658L29.07,78.685L28.993,78.714L28.919,78.745L28.845,78.777L28.773,78.812L28.703,78.848L28.633,78.885L28.566,78.925L28.499,78.966L28.434,79.009L28.37,79.054L28.308,79.101L28.247,79.149L28.187,79.199L28.129,79.251L28.072,79.304L28.017,79.36L27.963,79.417L27.911,79.475L27.86,79.535L27.812,79.596L27.765,79.659L27.719,79.723L27.676,79.788L27.634,79.855L27.594,79.923L27.555,79.993L27.518,80.064L27.483,80.136L27.45,80.21L27.418,80.285L27.388,80.362L27.36,80.44L27.334,80.52L27.309,80.601L27.286,80.683L27.264,80.767L27.245,80.852L27.227,80.939L27.21,81.027L27.196,81.116L27.183,81.207L27.172,81.299L27.162,81.393L27.155,81.488L27.149,81.584L27.144,81.682L27.142,81.782L27.141,81.882L27.142,81.981L27.145,82.078L27.149,82.174L27.155,82.269L27.163,82.362L27.172,82.455L27.184,82.546L27.197,82.635L27.212,82.724L27.228,82.811L27.247,82.896L27.267,82.981L27.289,83.064L27.312,83.146L27.337,83.227L27.364,83.306L27.393,83.384L27.424,83.461L27.456,83.537L27.49,83.611L27.526,83.684L27.563,83.755L27.603,83.826L27.644,83.895L27.686,83.963L27.731,84.029L27.777,84.095L27.825,84.159L27.875,84.221L27.926,84.283L27.98,84.343L28.035,84.402L28.091,84.459L28.149,84.515L28.208,84.568L28.268,84.62L28.329,84.67L28.391,84.718L28.455,84.765L28.52,84.809L28.586,84.852L28.653,84.893L28.722,84.932L28.792,84.969L28.863,85.005L28.935,85.039L29.008,85.07L29.083,85.101L29.158,85.129L29.235,85.155L29.314,85.18L29.393,85.202L29.474,85.223L29.555,85.242L29.638,85.26L29.723,85.275L29.808,85.289L29.895,85.301L29.983,85.311L30.072,85.319L30.162,85.325L30.253,85.33L30.346,85.333L30.44,85.333L30.538,85.333L30.634,85.33L30.729,85.325L30.823,85.319L30.915,85.311L31.006,85.301L31.096,85.29L31.184,85.276L31.271,85.261L31.357,85.244L31.441,85.226L31.524,85.205L31.605,85.183L31.685,85.159L31.764,85.133L31.841,85.106L31.917,85.076L31.992,85.045L32.065,85.012L32.137,84.978L32.207,84.941L32.276,84.903L32.344,84.863L32.41,84.821L32.475,84.777L32.539,84.732L32.601,84.685L32.662,84.636L32.722,84.585L32.78,84.533L32.837,84.478L32.892,84.422L32.946,84.365L32.998,84.306L33.049,84.245L33.097,84.183L33.144,84.12L33.19,84.055L33.233,83.989L33.275,83.922L33.315,83.853L33.354,83.783L33.391,83.711L33.426,83.638L33.459,83.564L33.491,83.488L33.521,83.41L33.549,83.332L33.576,83.252L33.6,83.17L33.623,83.087L33.645,83.003L33.664,82.917L33.682,82.83L33.699,82.742L33.713,82.652L33.726,82.561L33.737,82.468L33.747,82.374L33.754,82.278L33.76,82.181L33.765,82.083L33.767,81.983L33.768,81.882L33.768,81.818L33.766,81.754L33.764,81.69L33.762,81.627L33.758,81.565L33.754,81.502L33.749,81.441L33.743,81.38L33.736,81.319L33.728,81.26L33.72,81.2L33.711,81.141L33.701,81.083L33.69,81.025L33.679,80.967L33.666,80.91L33.653,80.854L33.639,80.798L33.624,80.743L33.609,80.688L33.593,80.633L33.576,80.579L33.558,80.526L33.539,80.473L33.519,80.421L33.499,80.369L33.478,80.318L33.456,80.267L33.434,80.217L33.41,80.167L33.386,80.118L33.361,80.069L33.335,80.021L33.309,79.973L33.281,79.926L33.254,79.88L33.225,79.835L33.196,79.79L33.166,79.746L33.136,79.703L33.105,79.661L33.073,79.619L33.04,79.578L33.007,79.537L32.973,79.497L32.939,79.458L32.904,79.42L32.868,79.382L32.831,79.346L32.794,79.309L32.756,79.274L32.718,79.239L32.679,79.205L32.639,79.172L32.598,79.139L32.557,79.107L32.515,79.076L32.473,79.045L32.43,79.015L32.386,78.986L32.341,78.958L32.296,78.93L32.25,78.903L32.204,78.876L32.156,78.851L32.109,78.826L32.061,78.802L32.012,78.779L31.964,78.757L31.914,78.735L31.864,78.714L31.814,78.694L31.764,78.675L31.712,78.657L31.661,78.64L31.609,78.623L31.556,78.607L31.504,78.592L31.45,78.578L31.396,78.564L31.342,78.552L31.288,78.54L31.232,78.529L31.177,78.519L31.121,78.51L31.064,78.501L31.007,78.493L30.95,78.486L30.892,78.48L30.834,78.475L30.775,78.471L30.716,78.467L30.657,78.464L30.596,78.462L30.536,78.461L30.475,78.46L30.377,78.461ZM13.546,78.578L13.546,82.902L13.546,82.974L13.548,83.045L13.551,83.115L13.555,83.184L13.561,83.252L13.567,83.318L13.575,83.384L13.584,83.449L13.594,83.513L13.605,83.576L13.618,83.637L13.632,83.698L13.646,83.758L13.663,83.817L13.68,83.874L13.698,83.931L13.718,83.986L13.739,84.041L13.761,84.095L13.784,84.147L13.808,84.199L13.834,84.249L13.861,84.299L13.889,84.347L13.918,84.394L13.948,84.441L13.98,84.486L14.012,84.531L14.046,84.574L14.081,84.616L14.118,84.657L14.155,84.698L14.194,84.737L14.233,84.775L14.274,84.811L14.315,84.847L14.358,84.881L14.401,84.914L14.445,84.945L14.49,84.976L14.537,85.005L14.584,85.033L14.632,85.06L14.681,85.085L14.731,85.109L14.782,85.132L14.833,85.154L14.886,85.174L14.94,85.194L14.995,85.212L15.05,85.228L15.107,85.244L15.165,85.258L15.223,85.271L15.282,85.283L15.343,85.294L15.404,85.303L15.467,85.311L15.53,85.318L15.594,85.323L15.659,85.328L15.725,85.331L15.792,85.333L15.86,85.333L15.946,85.332L16.03,85.33L16.113,85.325L16.195,85.318L16.275,85.31L16.354,85.299L16.431,85.287L16.507,85.273L16.582,85.256L16.655,85.238L16.727,85.218L16.797,85.197L16.866,85.173L16.933,85.147L17,85.12L17.064,85.09L17.128,85.059L17.189,85.026L17.249,84.992L17.307,84.955L17.363,84.917L17.417,84.878L17.47,84.837L17.521,84.794L17.57,84.749L17.617,84.703L17.663,84.655L17.707,84.605L17.749,84.554L17.789,84.501L17.827,84.446L17.864,84.39L17.999,84.39L18.286,85.216L20.015,85.216L20.015,78.578L17.724,78.578L17.724,81.484L17.723,81.62L17.72,81.751L17.715,81.877L17.708,81.997L17.699,82.113L17.688,82.224L17.675,82.33L17.661,82.431L17.644,82.527L17.625,82.617L17.615,82.661L17.605,82.703L17.593,82.744L17.582,82.784L17.57,82.823L17.557,82.86L17.544,82.896L17.531,82.931L17.517,82.964L17.502,82.996L17.487,83.027L17.472,83.057L17.456,83.086L17.439,83.113L17.421,83.14L17.403,83.166L17.385,83.191L17.365,83.215L17.345,83.239L17.324,83.261L17.303,83.282L17.281,83.303L17.258,83.322L17.235,83.341L17.211,83.359L17.186,83.375L17.161,83.391L17.135,83.406L17.108,83.421L17.081,83.434L17.053,83.446L17.024,83.457L16.995,83.468L16.965,83.477L16.934,83.486L16.903,83.494L16.871,83.501L16.838,83.506L16.805,83.511L16.771,83.516L16.736,83.519L16.701,83.521L16.665,83.522L16.628,83.523L16.576,83.522L16.526,83.518L16.478,83.511L16.432,83.502L16.387,83.49L16.366,83.483L16.345,83.476L16.324,83.468L16.304,83.459L16.285,83.449L16.265,83.439L16.247,83.429L16.228,83.417L16.211,83.405L16.193,83.392L16.176,83.379L16.16,83.365L16.144,83.35L16.129,83.335L16.114,83.319L16.099,83.302L16.085,83.285L16.071,83.267L16.058,83.249L16.045,83.229L16.021,83.189L15.999,83.146L15.978,83.1L15.959,83.053L15.941,83.002L15.924,82.949L15.909,82.894L15.895,82.836L15.883,82.776L15.872,82.713L15.863,82.648L15.855,82.58L15.848,82.51L15.843,82.437L15.84,82.362L15.838,82.285L15.837,82.205L15.837,78.578L13.546,78.578ZM6.326,76.65L6.326,85.216L9.66,85.216L9.754,85.216L9.847,85.214L9.938,85.21L10.028,85.206L10.117,85.2L10.205,85.193L10.291,85.184L10.377,85.174L10.461,85.163L10.543,85.151L10.625,85.137L10.705,85.122L10.784,85.105L10.862,85.088L10.938,85.069L11.013,85.048L11.087,85.027L11.16,85.004L11.232,84.98L11.302,84.954L11.371,84.927L11.439,84.899L11.505,84.87L11.57,84.839L11.634,84.807L11.697,84.773L11.759,84.739L11.819,84.703L11.878,84.665L11.936,84.627L11.993,84.587L12.048,84.545L12.102,84.503L12.154,84.46L12.205,84.415L12.253,84.37L12.3,84.324L12.346,84.276L12.389,84.228L12.431,84.179L12.472,84.129L12.51,84.078L12.547,84.026L12.582,83.973L12.615,83.919L12.647,83.864L12.677,83.808L12.705,83.751L12.732,83.693L12.756,83.634L12.78,83.574L12.801,83.513L12.821,83.452L12.839,83.389L12.855,83.325L12.869,83.26L12.882,83.195L12.893,83.128L12.903,83.061L12.91,82.992L12.916,82.923L12.921,82.852L12.923,82.781L12.924,82.708L12.923,82.611L12.919,82.517L12.912,82.424L12.907,82.379L12.902,82.334L12.896,82.29L12.889,82.246L12.882,82.203L12.874,82.161L12.865,82.119L12.856,82.077L12.846,82.037L12.835,81.996L12.823,81.957L12.811,81.918L12.798,81.879L12.784,81.841L12.77,81.804L12.755,81.767L12.739,81.731L12.723,81.695L12.706,81.66L12.688,81.626L12.67,81.592L12.65,81.559L12.631,81.526L12.61,81.494L12.589,81.462L12.567,81.431L12.544,81.401L12.52,81.371L12.496,81.341L12.47,81.312L12.444,81.284L12.417,81.256L12.389,81.229L12.361,81.203L12.331,81.176L12.3,81.151L12.269,81.126L12.237,81.101L12.204,81.078L12.17,81.054L12.135,81.031L12.099,81.009L12.063,80.987L12.026,80.966L11.987,80.946L11.948,80.926L11.908,80.906L11.868,80.887L11.826,80.869L11.783,80.851L11.74,80.834L11.696,80.817L11.651,80.801L11.605,80.785L11.558,80.77L11.51,80.755L11.462,80.741L11.412,80.728L11.412,80.669L11.45,80.66L11.487,80.65L11.523,80.639L11.56,80.627L11.595,80.615L11.63,80.602L11.665,80.588L11.699,80.573L11.733,80.558L11.767,80.542L11.8,80.526L11.832,80.508L11.864,80.49L11.896,80.472L11.927,80.452L11.957,80.432L11.987,80.411L12.017,80.39L12.046,80.367L12.075,80.344L12.104,80.321L12.131,80.296L12.159,80.271L12.186,80.245L12.212,80.219L12.238,80.191L12.264,80.164L12.289,80.135L12.314,80.105L12.338,80.075L12.362,80.045L12.385,80.013L12.408,79.981L12.43,79.949L12.451,79.916L12.472,79.882L12.491,79.849L12.51,79.815L12.529,79.78L12.547,79.745L12.563,79.71L12.58,79.674L12.595,79.638L12.61,79.601L12.624,79.564L12.637,79.527L12.65,79.489L12.662,79.451L12.673,79.412L12.684,79.373L12.693,79.333L12.702,79.293L12.711,79.253L12.718,79.212L12.725,79.171L12.731,79.13L12.737,79.088L12.741,79.045L12.745,79.003L12.748,78.96L12.753,78.872L12.754,78.783L12.753,78.715L12.751,78.648L12.747,78.582L12.741,78.518L12.734,78.454L12.724,78.392L12.714,78.331L12.701,78.271L12.687,78.212L12.671,78.154L12.654,78.098L12.635,78.042L12.614,77.988L12.592,77.934L12.568,77.882L12.543,77.831L12.515,77.781L12.486,77.733L12.456,77.685L12.423,77.638L12.39,77.593L12.354,77.549L12.317,77.506L12.278,77.464L12.237,77.423L12.195,77.383L12.151,77.345L12.106,77.307L12.059,77.271L12.01,77.235L11.96,77.201L11.907,77.168L11.854,77.136L11.798,77.106L11.741,77.076L11.682,77.047L11.621,77.019L11.558,76.992L11.494,76.966L11.428,76.942L11.36,76.918L11.29,76.895L11.219,76.873L11.146,76.852L11.071,76.833L10.995,76.814L10.916,76.796L10.836,76.779L10.754,76.764L10.67,76.749L10.585,76.735L10.498,76.723L10.409,76.711L10.318,76.7L10.226,76.691L10.132,76.682L10.036,76.675L9.938,76.668L9.838,76.662L9.737,76.658L9.634,76.654L9.529,76.652L9.423,76.65L9.315,76.65L6.326,76.65ZM30.485,80.166L30.518,80.167L30.55,80.169L30.581,80.172L30.612,80.176L30.643,80.181L30.672,80.186L30.701,80.193L30.73,80.2L30.758,80.208L30.785,80.217L30.811,80.226L30.837,80.237L30.863,80.248L30.887,80.261L30.912,80.274L30.935,80.288L30.958,80.303L30.98,80.318L31.002,80.335L31.023,80.352L31.043,80.37L31.063,80.389L31.082,80.409L31.101,80.43L31.119,80.452L31.136,80.474L31.153,80.497L31.169,80.522L31.184,80.547L31.199,80.572L31.213,80.599L31.24,80.655L31.266,80.714L31.289,80.776L31.311,80.842L31.331,80.911L31.349,80.983L31.366,81.058L31.38,81.137L31.393,81.218L31.405,81.304L31.414,81.392L31.422,81.483L31.428,81.578L31.432,81.676L31.435,81.778L31.436,81.882L31.435,81.988L31.433,82.09L31.428,82.189L31.422,82.285L31.415,82.377L31.405,82.467L31.394,82.553L31.381,82.636L31.366,82.716L31.35,82.793L31.332,82.866L31.312,82.936L31.291,83.004L31.268,83.068L31.243,83.128L31.216,83.186L31.202,83.214L31.188,83.24L31.172,83.266L31.156,83.291L31.14,83.315L31.123,83.338L31.105,83.361L31.087,83.382L31.068,83.403L31.048,83.422L31.028,83.441L31.007,83.459L30.986,83.476L30.964,83.492L30.941,83.508L30.918,83.522L30.894,83.536L30.87,83.548L30.845,83.56L30.819,83.571L30.793,83.581L30.766,83.59L30.738,83.599L30.71,83.606L30.682,83.613L30.652,83.618L30.622,83.623L30.592,83.627L30.561,83.63L30.529,83.632L30.496,83.634L30.463,83.634L30.43,83.634L30.397,83.632L30.365,83.63L30.333,83.627L30.302,83.623L30.272,83.618L30.242,83.613L30.213,83.606L30.185,83.599L30.157,83.59L30.129,83.581L30.103,83.571L30.077,83.56L30.051,83.548L30.026,83.536L30.002,83.522L29.978,83.508L29.955,83.492L29.933,83.476L29.911,83.459L29.89,83.441L29.869,83.422L29.849,83.403L29.829,83.382L29.811,83.361L29.792,83.338L29.775,83.315L29.758,83.291L29.741,83.266L29.726,83.24L29.71,83.214L29.696,83.186L29.668,83.128L29.642,83.068L29.618,83.004L29.596,82.936L29.575,82.866L29.556,82.793L29.54,82.716L29.524,82.636L29.511,82.553L29.499,82.467L29.49,82.377L29.482,82.285L29.475,82.189L29.471,82.09L29.468,81.988L29.467,81.882L29.468,81.777L29.471,81.675L29.475,81.576L29.482,81.481L29.49,81.389L29.499,81.3L29.511,81.215L29.524,81.133L29.54,81.054L29.556,80.979L29.575,80.907L29.596,80.838L29.618,80.773L29.642,80.71L29.668,80.652L29.682,80.623L29.696,80.596L29.71,80.57L29.725,80.544L29.741,80.519L29.758,80.495L29.774,80.472L29.792,80.45L29.81,80.428L29.829,80.408L29.848,80.388L29.868,80.369L29.888,80.351L29.909,80.334L29.931,80.317L29.953,80.302L29.976,80.287L29.999,80.273L30.023,80.26L30.047,80.248L30.072,80.237L30.098,80.226L30.124,80.216L30.151,80.208L30.179,80.2L30.207,80.192L30.235,80.186L30.264,80.181L30.294,80.176L30.324,80.172L30.355,80.169L30.387,80.167L30.419,80.166L30.452,80.165L30.485,80.166ZM9.476,81.631L9.542,81.634L9.606,81.638L9.668,81.645L9.727,81.653L9.785,81.662L9.841,81.674L9.894,81.687L9.946,81.703L9.995,81.72L10.043,81.738L10.088,81.759L10.131,81.781L10.173,81.805L10.212,81.831L10.249,81.859L10.284,81.888L10.317,81.919L10.348,81.952L10.376,81.986L10.402,82.021L10.426,82.058L10.448,82.097L10.467,82.137L10.484,82.179L10.499,82.222L10.511,82.267L10.521,82.314L10.529,82.362L10.535,82.411L10.538,82.462L10.539,82.515L10.538,82.571L10.535,82.626L10.53,82.678L10.522,82.729L10.513,82.778L10.501,82.826L10.487,82.871L10.472,82.915L10.454,82.957L10.433,82.997L10.411,83.035L10.387,83.072L10.36,83.107L10.332,83.14L10.301,83.171L10.268,83.201L10.233,83.228L10.196,83.254L10.157,83.278L10.116,83.301L10.073,83.321L10.027,83.34L9.979,83.357L9.93,83.372L9.878,83.385L9.824,83.397L9.768,83.407L9.709,83.415L9.649,83.421L9.587,83.426L9.522,83.428L9.455,83.429L8.641,83.429L8.641,81.63L9.408,81.63L9.476,81.631ZM23.488,79.733L23.529,79.736L23.569,79.741L23.607,79.748L23.644,79.757L23.679,79.768L23.713,79.781L23.746,79.796L23.778,79.813L23.808,79.833L23.836,79.854L23.864,79.877L23.89,79.902L23.915,79.929L23.938,79.958L23.96,79.99L23.981,80.023L24,80.058L24.019,80.095L24.035,80.135L24.051,80.176L24.065,80.219L24.077,80.265L24.089,80.312L24.099,80.361L24.108,80.413L24.115,80.466L24.121,80.521L24.126,80.579L24.129,80.638L24.131,80.7L24.132,80.763L24.131,80.825L24.129,80.885L24.125,80.943L24.121,80.999L24.114,81.053L24.107,81.106L24.097,81.156L24.087,81.204L24.075,81.25L24.062,81.295L24.047,81.337L24.031,81.377L24.014,81.416L23.995,81.452L23.975,81.486L23.953,81.519L23.93,81.549L23.906,81.578L23.881,81.605L23.854,81.629L23.827,81.652L23.798,81.672L23.768,81.691L23.737,81.708L23.705,81.723L23.671,81.735L23.637,81.746L23.601,81.755L23.564,81.762L23.526,81.767L23.487,81.77L23.446,81.771L23.403,81.77L23.36,81.767L23.319,81.762L23.28,81.755L23.242,81.746L23.205,81.735L23.17,81.722L23.136,81.707L23.103,81.69L23.072,81.671L23.042,81.65L23.014,81.628L22.987,81.603L22.961,81.576L22.937,81.547L22.914,81.516L22.893,81.483L22.873,81.448L22.854,81.411L22.837,81.373L22.821,81.332L22.806,81.289L22.793,81.244L22.781,81.197L22.771,81.149L22.762,81.098L22.754,81.045L22.748,80.99L22.743,80.934L22.74,80.875L22.738,80.814L22.737,80.751L22.738,80.689L22.74,80.628L22.743,80.569L22.748,80.512L22.754,80.458L22.762,80.405L22.771,80.354L22.781,80.305L22.793,80.259L22.806,80.214L22.821,80.171L22.837,80.13L22.854,80.091L22.873,80.054L22.893,80.02L22.914,79.987L22.937,79.956L22.961,79.927L22.987,79.9L23.014,79.875L23.042,79.852L23.072,79.831L23.103,79.812L23.136,79.796L23.17,79.781L23.205,79.768L23.242,79.757L23.28,79.748L23.319,79.741L23.36,79.736L23.403,79.733L23.446,79.732L23.488,79.733ZM9.358,78.402L9.423,78.405L9.486,78.408L9.547,78.413L9.605,78.419L9.662,78.427L9.716,78.436L9.768,78.447L9.818,78.459L9.866,78.472L9.912,78.487L9.955,78.503L9.997,78.521L10.036,78.54L10.074,78.56L10.109,78.582L10.142,78.605L10.173,78.63L10.201,78.656L10.228,78.683L10.252,78.712L10.275,78.742L10.295,78.774L10.313,78.807L10.329,78.842L10.343,78.878L10.355,78.915L10.364,78.954L10.372,78.994L10.377,79.035L10.38,79.078L10.381,79.122L10.38,79.172L10.377,79.22L10.372,79.267L10.364,79.312L10.355,79.356L10.343,79.398L10.329,79.438L10.313,79.477L10.295,79.514L10.275,79.55L10.252,79.584L10.228,79.617L10.201,79.648L10.173,79.677L10.142,79.705L10.109,79.732L10.074,79.757L10.037,79.78L9.999,79.802L9.958,79.822L9.916,79.84L9.873,79.857L9.827,79.872L9.78,79.886L9.731,79.898L9.68,79.908L9.627,79.917L9.573,79.924L9.517,79.93L9.459,79.934L9.4,79.936L9.338,79.937L8.641,79.937L8.641,78.402L9.291,78.402L9.358,78.402Z"/>
                </g>
            </g>
        </g>
        <g transform="matrix(1,0,0,1,-35.8868,64.7526)">
            <path d="M43.212,13.34L46.2,13.34C47.365,13.34 48.229,13.513 48.793,13.859C49.358,14.205 49.64,14.743 49.64,15.473C49.64,15.954 49.517,16.364 49.271,16.704C49.025,17.044 48.7,17.262 48.298,17.36L48.298,17.419C48.829,17.559 49.214,17.794 49.452,18.122C49.691,18.45 49.81,18.876 49.81,19.399C49.81,20.176 49.518,20.789 48.934,21.236C48.35,21.683 47.554,21.907 46.546,21.907L43.212,21.907L43.212,13.34ZM45.527,16.628L46.224,16.628C46.556,16.628 46.813,16.559 46.994,16.422C47.176,16.286 47.267,16.083 47.267,15.813C47.267,15.333 46.904,15.092 46.177,15.092L45.527,15.092L45.527,16.628ZM45.527,18.321L45.527,20.12L46.341,20.12C47.064,20.12 47.425,19.815 47.425,19.206C47.425,18.92 47.328,18.702 47.135,18.549C46.942,18.397 46.661,18.321 46.294,18.321L45.527,18.321Z" style="fill:white;fill-rule:nonzero;"/>
            <path d="M55.172,21.907L54.885,21.081L54.75,21.081C54.559,21.385 54.292,21.619 53.95,21.781C53.608,21.943 53.207,22.024 52.746,22.024C52.016,22.024 51.447,21.812 51.041,21.388C50.635,20.964 50.432,20.366 50.432,19.592L50.432,15.268L52.723,15.268L52.723,18.895C52.723,19.329 52.784,19.657 52.907,19.879C53.03,20.102 53.232,20.213 53.514,20.213C53.908,20.213 54.189,20.058 54.357,19.748C54.525,19.437 54.609,18.913 54.609,18.174L54.609,15.268L56.9,15.268L56.9,21.907L55.172,21.907Z" style="fill:white;fill-rule:nonzero;"/>
            <path d="M63.906,15.268L63.906,16.376L62.998,16.71C63.123,16.936 63.185,17.2 63.185,17.501C63.185,18.215 62.934,18.77 62.432,19.165C61.931,19.559 61.181,19.756 60.185,19.756C59.939,19.756 59.744,19.741 59.599,19.71C59.545,19.811 59.517,19.907 59.517,19.997C59.517,20.11 59.609,20.197 59.793,20.257C59.976,20.318 60.217,20.348 60.514,20.348L61.615,20.348C63.103,20.348 63.847,20.975 63.847,22.229C63.847,23.038 63.503,23.667 62.813,24.116C62.124,24.565 61.156,24.79 59.91,24.79C58.969,24.79 58.243,24.632 57.733,24.318C57.223,24.003 56.969,23.551 56.969,22.961C56.969,22.169 57.461,21.657 58.445,21.426C58.242,21.34 58.065,21.202 57.915,21.01C57.764,20.819 57.689,20.629 57.689,20.442C57.689,20.235 57.746,20.052 57.859,19.894C57.972,19.736 58.209,19.547 58.568,19.329C58.224,19.176 57.954,18.938 57.757,18.614C57.559,18.29 57.461,17.895 57.461,17.43C57.461,16.708 57.707,16.147 58.199,15.749C58.691,15.35 59.394,15.151 60.308,15.151C60.43,15.151 60.639,15.165 60.935,15.192C61.232,15.219 61.451,15.245 61.592,15.268L63.906,15.268ZM58.902,22.733C58.902,22.92 59.004,23.072 59.207,23.187C59.41,23.302 59.681,23.36 60.021,23.36C60.576,23.36 61.02,23.291 61.354,23.152C61.688,23.013 61.855,22.835 61.855,22.616C61.855,22.44 61.754,22.316 61.551,22.244C61.347,22.171 61.056,22.135 60.678,22.135L59.781,22.135C59.535,22.135 59.327,22.193 59.157,22.308C58.987,22.423 58.902,22.565 58.902,22.733ZM59.623,17.442C59.623,18.122 59.859,18.461 60.332,18.461C60.551,18.461 60.72,18.378 60.839,18.21C60.958,18.042 61.017,17.79 61.017,17.454C61.017,16.766 60.789,16.422 60.332,16.422C59.859,16.422 59.623,16.762 59.623,17.442Z" style="fill:white;fill-rule:nonzero;"/>
            <path d="M70.654,18.573C70.654,19.659 70.362,20.505 69.778,21.113C69.194,21.72 68.376,22.024 67.326,22.024C66.318,22.024 65.516,21.713 64.92,21.092C64.325,20.471 64.027,19.631 64.027,18.573C64.027,17.491 64.319,16.65 64.903,16.05C65.487,15.451 66.306,15.151 67.361,15.151C68.013,15.151 68.589,15.29 69.089,15.567C69.589,15.844 69.975,16.242 70.247,16.759C70.518,17.277 70.654,17.881 70.654,18.573ZM66.353,18.573C66.353,19.143 66.429,19.578 66.581,19.877C66.734,20.175 66.99,20.325 67.349,20.325C67.705,20.325 67.956,20.175 68.102,19.877C68.248,19.578 68.322,19.143 68.322,18.573C68.322,18.006 68.247,17.579 68.099,17.29C67.951,17.001 67.697,16.856 67.337,16.856C66.986,16.856 66.734,17 66.581,17.287C66.429,17.574 66.353,18.003 66.353,18.573Z" style="fill:white;fill-rule:nonzero;"/>
        </g>
        <g transform="matrix(1,0,0,1,-35.8868,64.7526)">
            <path d="M43.212,13.34L46.2,13.34C47.365,13.34 48.229,13.513 48.793,13.859C49.358,14.205 49.64,14.743 49.64,15.473C49.64,15.954 49.517,16.364 49.271,16.704C49.025,17.044 48.7,17.262 48.298,17.36L48.298,17.419C48.829,17.559 49.214,17.794 49.452,18.122C49.691,18.45 49.81,18.876 49.81,19.399C49.81,20.176 49.518,20.789 48.934,21.236C48.35,21.683 47.554,21.907 46.546,21.907L43.212,21.907L43.212,13.34ZM45.527,16.628L46.224,16.628C46.556,16.628 46.813,16.559 46.994,16.422C47.176,16.286 47.267,16.083 47.267,15.813C47.267,15.333 46.904,15.092 46.177,15.092L45.527,15.092L45.527,16.628ZM45.527,18.321L45.527,20.12L46.341,20.12C47.064,20.12 47.425,19.815 47.425,19.206C47.425,18.92 47.328,18.702 47.135,18.549C46.942,18.397 46.661,18.321 46.294,18.321L45.527,18.321Z" style="fill:white;fill-rule:nonzero;"/>
            <path d="M55.172,21.907L54.885,21.081L54.75,21.081C54.559,21.385 54.292,21.619 53.95,21.781C53.608,21.943 53.207,22.024 52.746,22.024C52.016,22.024 51.447,21.812 51.041,21.388C50.635,20.964 50.432,20.366 50.432,19.592L50.432,15.268L52.723,15.268L52.723,18.895C52.723,19.329 52.784,19.657 52.907,19.879C53.03,20.102 53.232,20.213 53.514,20.213C53.908,20.213 54.189,20.058 54.357,19.748C54.525,19.437 54.609,18.913 54.609,18.174L54.609,15.268L56.9,15.268L56.9,21.907L55.172,21.907Z" style="fill:white;fill-rule:nonzero;"/>
            <path d="M63.906,15.268L63.906,16.376L62.998,16.71C63.123,16.936 63.185,17.2 63.185,17.501C63.185,18.215 62.934,18.77 62.432,19.165C61.931,19.559 61.181,19.756 60.185,19.756C59.939,19.756 59.744,19.741 59.599,19.71C59.545,19.811 59.517,19.907 59.517,19.997C59.517,20.11 59.609,20.197 59.793,20.257C59.976,20.318 60.217,20.348 60.514,20.348L61.615,20.348C63.103,20.348 63.847,20.975 63.847,22.229C63.847,23.038 63.503,23.667 62.813,24.116C62.124,24.565 61.156,24.79 59.91,24.79C58.969,24.79 58.243,24.632 57.733,24.318C57.223,24.003 56.969,23.551 56.969,22.961C56.969,22.169 57.461,21.657 58.445,21.426C58.242,21.34 58.065,21.202 57.915,21.01C57.764,20.819 57.689,20.629 57.689,20.442C57.689,20.235 57.746,20.052 57.859,19.894C57.972,19.736 58.209,19.547 58.568,19.329C58.224,19.176 57.954,18.938 57.757,18.614C57.559,18.29 57.461,17.895 57.461,17.43C57.461,16.708 57.707,16.147 58.199,15.749C58.691,15.35 59.394,15.151 60.308,15.151C60.43,15.151 60.639,15.165 60.935,15.192C61.232,15.219 61.451,15.245 61.592,15.268L63.906,15.268ZM58.902,22.733C58.902,22.92 59.004,23.072 59.207,23.187C59.41,23.302 59.681,23.36 60.021,23.36C60.576,23.36 61.02,23.291 61.354,23.152C61.688,23.013 61.855,22.835 61.855,22.616C61.855,22.44 61.754,22.316 61.551,22.244C61.347,22.171 61.056,22.135 60.678,22.135L59.781,22.135C59.535,22.135 59.327,22.193 59.157,22.308C58.987,22.423 58.902,22.565 58.902,22.733ZM59.623,17.442C59.623,18.122 59.859,18.461 60.332,18.461C60.551,18.461 60.72,18.378 60.839,18.21C60.958,18.042 61.017,17.79 61.017,17.454C61.017,16.766 60.789,16.422 60.332,16.422C59.859,16.422 59.623,16.762 59.623,17.442Z" style="fill:white;fill-rule:nonzero;"/>
            <path d="M70.654,18.573C70.654,19.659 70.362,20.505 69.778,21.113C69.194,21.72 68.376,22.024 67.326,22.024C66.318,22.024 65.516,21.713 64.92,21.092C64.325,20.471 64.027,19.631 64.027,18.573C64.027,17.491 64.319,16.65 64.903,16.05C65.487,15.451 66.306,15.151 67.361,15.151C68.013,15.151 68.589,15.29 69.089,15.567C69.589,15.844 69.975,16.242 70.247,16.759C70.518,17.277 70.654,17.881 70.654,18.573ZM66.353,18.573C66.353,19.143 66.429,19.578 66.581,19.877C66.734,20.175 66.99,20.325 67.349,20.325C67.705,20.325 67.956,20.175 68.102,19.877C68.248,19.578 68.322,19.143 68.322,18.573C68.322,18.006 68.247,17.579 68.099,17.29C67.951,17.001 67.697,16.856 67.337,16.856C66.986,16.856 66.734,17 66.581,17.287C66.429,17.574 66.353,18.003 66.353,18.573Z" style="fill:white;fill-rule:nonzero;"/>
        </g>
    </g>
</svg>
