<?xml version="1.0" encoding="UTF-8" standalone="no"?>
<!DOCTYPE svg PUBLIC "-//W3C//DTD SVG 1.1//EN" "http://www.w3.org/Graphics/SVG/1.1/DTD/svg11.dtd">
<svg width="100%" height="100%" viewBox="0 0 40 39" version="1.1" xmlns="http://www.w3.org/2000/svg" xmlns:xlink="http://www.w3.org/1999/xlink" xml:space="preserve" xmlns:serif="http://www.serif.com/" style="fill-rule:evenodd;clip-rule:evenodd;stroke-linejoin:round;stroke-miterlimit:1.41421;">
    <g transform="matrix(1,0,0,1,-238.718,-55.3666)">
        <g id="foerstry-mark" serif:id="foerstry mark" transform="matrix(0.381679,0,0,0.381679,258.718,74.8132)">
            <g transform="matrix(1,0,0,1,-52.4,-50.95)">
                <clipPath id="_clip1">
                    <rect x="0" y="0" width="104.8" height="101.9"/>
                </clipPath>
                <g clip-path="url(#_clip1)">
                    <path d="M51,42.3L28.3,19.7L5.7,42.3L0,36.7L28.3,8.3L56.7,36.7L51,42.3Z" style="fill-rule:nonzero;"/>
                    <path d="M51,64.9L28.3,42.3L5.7,64.9L0,59.3L28.3,30.9L56.7,59.3L51,64.9Z" style="fill-rule:nonzero;"/>
                    <path d="M76.4,67.8L48.1,39.4L53.8,33.8L76.4,56.4L99.1,33.8L104.8,39.4L76.4,67.8Z" style="fill-rule:nonzero;"/>
                    <path d="M76.4,45.2L48.1,16.8L53.8,11.2L76.4,33.8L99.1,11.2L104.8,16.8L76.4,45.2Z" style="fill-rule:nonzero;"/>
                    <rect x="24.3" y="0" width="8" height="101.9" style="fill-rule:nonzero;"/>
                    <rect x="72.4" y="0" width="8" height="101.9" style="fill-rule:nonzero;"/>
                </g>
            </g>
        </g>
    </g>
</svg>
