<?xml version="1.0" encoding="UTF-8" standalone="no"?>
<!DOCTYPE svg PUBLIC "-//W3C//DTD SVG 1.1//EN" "http://www.w3.org/Graphics/SVG/1.1/DTD/svg11.dtd">
<svg width="100%" height="100%" viewBox="0 0 75 100" version="1.1" xmlns="http://www.w3.org/2000/svg" xmlns:xlink="http://www.w3.org/1999/xlink" xml:space="preserve" xmlns:serif="http://www.serif.com/" style="fill-rule:evenodd;clip-rule:evenodd;stroke-linejoin:round;stroke-miterlimit:1.41421;">
    <g transform="matrix(1,0,0,1,4.18524e-06,0)">
        <g transform="matrix(0.195312,0,0,0.195312,-3.36781e-06,0)">
            <path d="M135.652,0C159.277,0 179.478,20.65 179.478,44.8L179.478,144.651C196.526,128.311 229.244,126.305 250.422,150.95C273.251,136.662 303.439,148.803 312.737,167.4C361.878,158.426 384,189.346 384,240C384,242.746 383.797,253.276 383.805,256C383.973,317.971 352.74,332.894 345.49,379.731C343.683,391.404 333.599,400 321.786,400L150.261,400L150.26,399.998C131.894,399.987 114.371,389.391 106.415,371.534C93.421,342.648 57.377,276.122 29.092,264C10.897,256.203 0.008,242.616 0,224C-0.014,189.778 35.098,166.248 66.908,179.881C75.267,183.464 83.578,188.193 91.826,194.034L91.826,44.8C91.826,21.35 112.369,0 135.652,0ZM136,416L328,416C341.255,416 352,426.745 352,440L352,488C352,501.255 341.255,512 328,512L136,512C122.745,512 112,501.255 112,488L112,440C112,426.745 122.745,416 136,416ZM304,444C292.954,444 284,452.954 284,464C284,475.046 292.954,484 304,484C315.046,484 324,475.046 324,464C324,452.954 315.046,444 304,444Z" style="fill:white;fill-rule:nonzero;"/>
        </g>
    </g>
</svg>
