<?xml version="1.0" encoding="UTF-8" standalone="no"?><!DOCTYPE svg PUBLIC "-//W3C//DTD SVG 1.1//EN" "http://www.w3.org/Graphics/SVG/1.1/DTD/svg11.dtd"><svg width="100%" height="100%" viewBox="0 0 156 170" version="1.1" xmlns="http://www.w3.org/2000/svg" xmlns:xlink="http://www.w3.org/1999/xlink" xml:space="preserve" xmlns:serif="http://www.serif.com/" style="fill-rule:evenodd;clip-rule:evenodd;stroke-miterlimit:10;"><path d="M53.205,38.632c0,8.048 -6.524,14.573 -14.573,14.573c-8.048,0 -14.573,-6.525 -14.573,-14.573c0,-8.049 6.525,-14.573 14.573,-14.573c8.049,0 14.573,6.524 14.573,14.573" style="fill:#fff;fill-rule:nonzero;"/><path d="M53.205,38.632c0,-8.043 -6.53,-14.573 -14.573,-14.573c-8.043,0 -14.573,6.53 -14.573,14.573c0,8.043 6.53,14.573 14.573,14.573c8.043,0 14.573,-6.53 14.573,-14.573Z" style="fill:none;stroke:#0f5388;stroke-width:4.79px;"/><path d="M102.509,38.676c0,8.049 6.524,14.573 14.572,14.573c8.049,0 14.574,-6.524 14.574,-14.573c0,-8.048 -6.525,-14.572 -14.574,-14.572c-8.048,0 -14.572,6.524 -14.572,14.572" style="fill:#fff;fill-rule:nonzero;"/><path d="M102.509,38.677c0,8.043 6.53,14.572 14.573,14.572c8.043,0 14.573,-6.529 14.573,-14.572c0,-8.043 -6.53,-14.573 -14.573,-14.573c-8.043,0 -14.573,6.53 -14.573,14.573Z" style="fill:none;stroke:#0f5388;stroke-width:4.79px;"/><path d="M137.471,113.561l1.85,0c5.615,0 10.167,-4.552 10.167,-10.167l-0.557,-31.855c0,-12.685 -11.193,-14.09 -17.45,-16.468l-15.072,11.247l-13.518,-11.247c-5.186,1.38 -13.358,1.556 -19.795,15.061l-10.445,0c-6.437,-13.505 -14.61,-13.681 -19.795,-15.061l-13.518,11.247l-0.001,0l-15.071,-11.247c-6.257,2.378 -17.45,3.783 -17.45,16.468l-0.557,31.855c0,5.615 4.552,10.167 10.167,10.167l1.85,0" style="fill:#a8c8ea;fill-rule:nonzero;stroke:#0f5388;stroke-width:4.79px;stroke-linecap:round;stroke-linejoin:round;"/><path d="M18.944,78.214l0,84.031l37.162,0l0,-85.1c0,-1.362 1.105,-2.466 2.466,-2.466c0.94,0 1.798,0.534 2.213,1.377l7.894,15.433" style="fill:#a8c8ea;fill-rule:nonzero;stroke:#0f5388;stroke-width:4.79px;stroke-linecap:round;stroke-linejoin:round;"/><path d="M136.803,78.214l0,84.031l-37.162,0l0,-85.1c0,-1.362 -1.105,-2.466 -2.466,-2.466c-0.94,0 -1.798,0.534 -2.213,1.377l-11.824,28.164" style="fill:#a8c8ea;fill-rule:nonzero;stroke:#0f5388;stroke-width:4.79px;stroke-linecap:round;stroke-linejoin:round;"/><path d="M118.556,110.963l0,51.061" style="fill:none;stroke:#0f5388;stroke-width:4.79px;stroke-linecap:round;stroke-linejoin:round;"/><path d="M89.914,71.221c0,6.466 -5.242,11.708 -11.708,11.708c-6.466,0 -11.707,-5.242 -11.707,-11.708c0,-6.466 5.241,-11.707 11.707,-11.707c6.466,0 11.708,5.241 11.708,11.707" style="fill:#fff;fill-rule:nonzero;"/><path d="M89.914,71.222c0,-6.462 -5.246,-11.708 -11.707,-11.708c-6.462,0 -11.708,5.246 -11.708,11.708c0,6.461 5.246,11.707 11.708,11.707c6.461,0 11.707,-5.246 11.707,-11.707Z" style="fill:none;stroke:#0f5388;stroke-width:4.79px;"/><path d="M92.101,130.952l1.411,0c4.286,0 7.76,-3.475 7.76,-7.76l-0.424,-25.276c0,-9.681 -8.544,-10.753 -13.318,-12.568l-0.001,0l-9.732,8.582l-0.02,0.001l-10.538,-8.583c-4.776,1.815 -13.319,2.887 -13.319,12.568l-0.424,25.276c0,4.285 3.473,7.76 7.759,7.76l1.411,0" style="fill:#509fd7;fill-rule:nonzero;stroke:#0f5388;stroke-width:4.79px;stroke-linecap:round;stroke-linejoin:round;"/><path d="M63.176,103.01l0,64.133l28.362,0l0,-64.948" style="fill:#509fd7;fill-rule:nonzero;stroke:#0f5388;stroke-width:4.79px;stroke-linecap:round;stroke-linejoin:round;"/><path d="M77.103,128.004l0,38.97" style="fill:none;stroke:#0f5388;stroke-width:4.79px;stroke-linecap:round;stroke-linejoin:round;"/><path d="M37.191,110.963l0,51.061" style="fill:none;stroke:#0f5388;stroke-width:4.79px;stroke-linecap:round;stroke-linejoin:round;"/></svg>