<?xml version="1.0" encoding="UTF-8" standalone="no"?><!DOCTYPE svg PUBLIC "-//W3C//DTD SVG 1.1//EN" "http://www.w3.org/Graphics/SVG/1.1/DTD/svg11.dtd"><svg width="100%" height="100%" viewBox="0 0 167 190" version="1.1" xmlns="http://www.w3.org/2000/svg" xmlns:xlink="http://www.w3.org/1999/xlink" xml:space="preserve" xmlns:serif="http://www.serif.com/" style="fill-rule:evenodd;clip-rule:evenodd;stroke-linecap:round;stroke-linejoin:round;stroke-miterlimit:10;"><path d="M153.305,41.079l-22.339,0l0,-5.851c0,-6.169 5.001,-11.169 11.17,-11.169c6.168,0 11.169,5 11.169,11.169l0,5.851Z" style="fill:#a8c8ea;fill-rule:nonzero;stroke:#0f5388;stroke-width:4.79px;"/><path d="M118.585,165.272c6.838,0 12.381,-5.543 12.381,-12.38l0,-117.664c0,-6.382 5.585,-11.169 11.17,-11.169l-108.489,0c-5.295,0 -9.588,4.293 -9.588,9.588l0,131.625l94.526,0Z" style="fill:#fff;fill-rule:nonzero;stroke:#0f5388;stroke-width:4.79px;stroke-linecap:butt;stroke-linejoin:miter;"/><path d="M24.059,165.272l95.007,0c-6.169,0 -11.17,-5 -11.17,-11.169l0,-5.851l-95.671,0l0,5.851c0,6.169 5,11.169 11.169,11.169" style="fill:#a8c8ea;fill-rule:nonzero;stroke:#0f5388;stroke-width:4.79px;"/><path d="M57.434,46.531l38.295,0" style="fill:none;stroke:#0f5388;stroke-width:4.79px;"/><path d="M45.866,63.551l62.097,0" style="fill:none;stroke:#0f5388;stroke-width:4.79px;"/><path d="M45.866,74.721l62.097,0" style="fill:none;stroke:#0f5388;stroke-width:4.79px;"/><path d="M45.866,114.346l17.951,0" style="fill:none;stroke:#0f5388;stroke-width:4.79px;"/><path d="M45.866,125.515l17.951,0" style="fill:none;stroke:#0f5388;stroke-width:4.79px;"/><path d="M45.866,85.89l39.492,0" style="fill:none;stroke:#0f5388;stroke-width:4.79px;"/><path d="M114.08,116.577l0,19.975l-8.511,-4.787l-8.51,4.787l0,-19.975" style="fill:#a8c8ea;fill-rule:nonzero;stroke:#0f5388;stroke-width:4.79px;"/><path d="M119.597,105.436c0,7.748 -6.28,14.028 -14.028,14.028c-7.747,0 -14.029,-6.28 -14.029,-14.028c0,-7.747 6.282,-14.028 14.029,-14.028c7.748,0 14.028,6.281 14.028,14.028" style="fill:#509fd7;fill-rule:nonzero;"/><path d="M119.597,105.436c0,-7.742 -6.286,-14.028 -14.028,-14.028c-7.743,0 -14.029,6.286 -14.029,14.028c0,7.743 6.286,14.028 14.029,14.028c7.742,0 14.028,-6.285 14.028,-14.028Z" style="fill:none;stroke:#0f5388;stroke-width:4.79px;"/></svg>