<?xml version="1.0" encoding="UTF-8" standalone="no"?>
<!DOCTYPE svg PUBLIC "-//W3C//DTD SVG 1.1//EN" "http://www.w3.org/Graphics/SVG/1.1/DTD/svg11.dtd">
<svg width="100%" height="100%" viewBox="0 0 50 50" version="1.1" xmlns="http://www.w3.org/2000/svg" xmlns:xlink="http://www.w3.org/1999/xlink" xml:space="preserve" xmlns:serif="http://www.serif.com/" style="fill-rule:evenodd;clip-rule:evenodd;stroke-linejoin:round;stroke-miterlimit:1.41421;">
    <g transform="matrix(1,0,0,1,-4.28121,-34.6044)">
        <g id="favicon" transform="matrix(1.25,0,0,1.25,-195.559,-14.7986)">
            <g transform="matrix(1.81267,0,0,2.00769,-216.699,-57.2632)">
                <path d="M229.81,49.487C229.81,48.781 229.175,48.207 228.393,48.207L209.161,48.207C208.378,48.207 207.743,48.781 207.743,49.487L207.743,66.851C207.743,67.558 208.378,68.131 209.161,68.131L228.393,68.131C229.175,68.131 229.81,67.558 229.81,66.851L229.81,49.487Z" style="fill:rgb(9,66,163);"/>
            </g>
            <g transform="matrix(3.77035,0,0,3.69554,-1.12574,-7.91963)">
                <g id="Bugo-Logo" serif:id="Bugo Logo">
                    <g>
                        <path d="M43.212,13.34L46.2,13.34C47.365,13.34 48.229,13.513 48.793,13.859C49.358,14.205 49.64,14.743 49.64,15.473C49.64,15.954 49.517,16.364 49.271,16.704C49.025,17.044 48.7,17.262 48.298,17.36L48.298,17.419C48.829,17.559 49.214,17.794 49.452,18.122C49.691,18.45 49.81,18.876 49.81,19.399C49.81,20.176 49.518,20.789 48.934,21.236C48.35,21.683 47.554,21.907 46.546,21.907L43.212,21.907L43.212,13.34ZM45.527,16.628L46.224,16.628C46.556,16.628 46.813,16.559 46.994,16.422C47.176,16.286 47.267,16.083 47.267,15.813C47.267,15.333 46.904,15.092 46.177,15.092L45.527,15.092L45.527,16.628ZM45.527,18.321L45.527,20.12L46.341,20.12C47.064,20.12 47.425,19.815 47.425,19.206C47.425,18.92 47.328,18.702 47.135,18.549C46.942,18.397 46.661,18.321 46.294,18.321L45.527,18.321Z" style="fill:white;fill-rule:nonzero;"/>
                    </g>
                </g>
            </g>
            <g transform="matrix(7.51186,0,0,7.51186,-1109.12,-160.091)">
                <path d="M174.164,29.173L174.164,29.474L173.917,29.564C173.951,29.626 173.968,29.697 173.968,29.779C173.968,29.973 173.9,30.123 173.764,30.23C173.628,30.338 173.425,30.391 173.154,30.391C173.087,30.391 173.034,30.387 172.995,30.378C172.98,30.406 172.973,30.432 172.973,30.456C172.973,30.487 172.998,30.511 173.048,30.527C173.097,30.543 173.163,30.552 173.243,30.552L173.542,30.552C173.946,30.552 174.148,30.722 174.148,31.062C174.148,31.282 174.054,31.452 173.867,31.574C173.68,31.696 173.418,31.757 173.079,31.757C172.824,31.757 172.627,31.714 172.489,31.629C172.35,31.544 172.281,31.421 172.281,31.261C172.281,31.046 172.415,30.907 172.682,30.844C172.627,30.821 172.579,30.783 172.538,30.731C172.497,30.679 172.477,30.628 172.477,30.577C172.477,30.521 172.492,30.471 172.523,30.428C172.554,30.386 172.618,30.334 172.715,30.275C172.622,30.234 172.549,30.169 172.495,30.081C172.442,29.993 172.415,29.886 172.415,29.76C172.415,29.564 172.482,29.412 172.615,29.303C172.749,29.195 172.94,29.141 173.188,29.141C173.22,29.141 173.277,29.145 173.358,29.152C173.438,29.16 173.498,29.167 173.536,29.173L174.164,29.173ZM172.806,31.199C172.806,31.25 172.834,31.291 172.889,31.322C172.944,31.353 173.017,31.369 173.11,31.369C173.26,31.369 173.381,31.35 173.471,31.313C173.562,31.275 173.607,31.226 173.607,31.167C173.607,31.119 173.58,31.086 173.525,31.066C173.47,31.046 173.391,31.037 173.288,31.037L173.044,31.037C172.978,31.037 172.921,31.052 172.875,31.084C172.829,31.115 172.806,31.153 172.806,31.199ZM173.002,29.763C173.002,29.947 173.066,30.04 173.194,30.04C173.253,30.04 173.299,30.017 173.331,29.971C173.364,29.926 173.38,29.857 173.38,29.766C173.38,29.58 173.318,29.486 173.194,29.486C173.066,29.486 173.002,29.579 173.002,29.763Z" style="fill:white;fill-rule:nonzero;"/>
            </g>
        </g>
    </g>
</svg>
