<?xml version="1.0" encoding="UTF-8" standalone="no"?>
<!DOCTYPE svg PUBLIC "-//W3C//DTD SVG 1.1//EN" "http://www.w3.org/Graphics/SVG/1.1/DTD/svg11.dtd">
<svg width="200" height="96" viewBox="0 0 200 96" version="1.1" xmlns="http://www.w3.org/2000/svg" xmlns:xlink="http://www.w3.org/1999/xlink" xml:space="preserve" xmlns:serif="http://www.serif.com/" style="fill-rule:evenodd;clip-rule:evenodd;stroke-linejoin:round;stroke-miterlimit:1.41421;">
    <g transform="matrix(1,0,0,1,-9.78443,-8.11643)">
        <g transform="matrix(3.2797,0,0,3.25239,-463.703,-55.6269)">
            <g>
                <g id="Bugo-Logo" serif:id="Bugo Logo">
                    <g transform="matrix(1,0,0,1,102.651,7.76487)">
                        <path d="M43.212,13.34L46.2,13.34C47.365,13.34 48.229,13.513 48.793,13.859C49.358,14.205 49.64,14.743 49.64,15.473C49.64,15.954 49.517,16.364 49.271,16.704C49.025,17.044 48.7,17.262 48.298,17.36L48.298,17.419C48.829,17.559 49.214,17.794 49.452,18.122C49.691,18.45 49.81,18.876 49.81,19.399C49.81,20.176 49.518,20.789 48.934,21.236C48.35,21.683 47.554,21.907 46.546,21.907L43.212,21.907L43.212,13.34ZM45.527,16.628L46.224,16.628C46.556,16.628 46.813,16.559 46.994,16.422C47.176,16.286 47.267,16.083 47.267,15.813C47.267,15.333 46.904,15.092 46.177,15.092L45.527,15.092L45.527,16.628ZM45.527,18.321L45.527,20.12L46.341,20.12C47.064,20.12 47.425,19.815 47.425,19.206C47.425,18.92 47.328,18.702 47.135,18.549C46.942,18.397 46.661,18.321 46.294,18.321L45.527,18.321Z" style="fill:rgb(99,255,25);fill-rule:nonzero;stroke:rgb(0,158,204);stroke-width:3px;"/>
                        <path d="M55.172,21.907L54.885,21.081L54.75,21.081C54.559,21.385 54.292,21.619 53.95,21.781C53.608,21.943 53.207,22.024 52.746,22.024C52.016,22.024 51.447,21.812 51.041,21.388C50.635,20.964 50.432,20.366 50.432,19.592L50.432,15.268L52.723,15.268L52.723,18.895C52.723,19.329 52.784,19.657 52.907,19.879C53.03,20.102 53.232,20.213 53.514,20.213C53.908,20.213 54.189,20.058 54.357,19.748C54.525,19.437 54.609,18.913 54.609,18.174L54.609,15.268L56.9,15.268L56.9,21.907L55.172,21.907Z" style="fill:rgb(99,255,25);fill-rule:nonzero;stroke:rgb(0,158,204);stroke-width:3px;"/>
                        <path d="M63.906,15.268L63.906,16.376L62.998,16.71C63.123,16.936 63.185,17.2 63.185,17.501C63.185,18.215 62.934,18.77 62.432,19.165C61.931,19.559 61.181,19.756 60.185,19.756C59.939,19.756 59.744,19.741 59.599,19.71C59.545,19.811 59.517,19.907 59.517,19.997C59.517,20.11 59.609,20.197 59.793,20.257C59.976,20.318 60.217,20.348 60.514,20.348L61.615,20.348C63.103,20.348 63.847,20.975 63.847,22.229C63.847,23.038 63.503,23.667 62.813,24.116C62.124,24.565 61.156,24.79 59.91,24.79C58.969,24.79 58.243,24.632 57.733,24.318C57.223,24.003 56.969,23.551 56.969,22.961C56.969,22.169 57.461,21.657 58.445,21.426C58.242,21.34 58.065,21.202 57.915,21.01C57.764,20.819 57.689,20.629 57.689,20.442C57.689,20.235 57.746,20.052 57.859,19.894C57.972,19.736 58.209,19.547 58.568,19.329C58.224,19.176 57.954,18.938 57.757,18.614C57.559,18.29 57.461,17.895 57.461,17.43C57.461,16.708 57.707,16.147 58.199,15.749C58.691,15.35 59.394,15.151 60.308,15.151C60.43,15.151 60.639,15.165 60.935,15.192C61.232,15.219 61.451,15.245 61.592,15.268L63.906,15.268ZM58.902,22.733C58.902,22.92 59.004,23.072 59.207,23.187C59.41,23.302 59.681,23.36 60.021,23.36C60.576,23.36 61.02,23.291 61.354,23.152C61.688,23.013 61.855,22.835 61.855,22.616C61.855,22.44 61.754,22.316 61.551,22.244C61.347,22.171 61.056,22.135 60.678,22.135L59.781,22.135C59.535,22.135 59.327,22.193 59.157,22.308C58.987,22.423 58.902,22.565 58.902,22.733ZM59.623,17.442C59.623,18.122 59.859,18.461 60.332,18.461C60.551,18.461 60.72,18.378 60.839,18.21C60.958,18.042 61.017,17.79 61.017,17.454C61.017,16.766 60.789,16.422 60.332,16.422C59.859,16.422 59.623,16.762 59.623,17.442Z" style="fill:rgb(99,255,25);fill-rule:nonzero;stroke:rgb(0,158,204);stroke-width:3px;"/>
                        <path d="M70.654,18.573C70.654,19.659 70.362,20.505 69.778,21.113C69.194,21.72 68.376,22.024 67.326,22.024C66.318,22.024 65.516,21.713 64.92,21.092C64.325,20.471 64.027,19.631 64.027,18.573C64.027,17.491 64.319,16.65 64.903,16.05C65.487,15.451 66.306,15.151 67.361,15.151C68.013,15.151 68.589,15.29 69.089,15.567C69.589,15.844 69.975,16.242 70.247,16.759C70.518,17.277 70.654,17.881 70.654,18.573ZM66.353,18.573C66.353,19.143 66.429,19.578 66.581,19.877C66.734,20.175 66.99,20.325 67.349,20.325C67.705,20.325 67.956,20.175 68.102,19.877C68.248,19.578 68.322,19.143 68.322,18.573C68.322,18.006 68.247,17.579 68.099,17.29C67.951,17.001 67.697,16.856 67.337,16.856C66.986,16.856 66.734,17 66.581,17.287C66.429,17.574 66.353,18.003 66.353,18.573Z" style="fill:rgb(99,255,25);fill-rule:nonzero;stroke:rgb(0,158,204);stroke-width:3px;"/>
                    </g>
                    <g transform="matrix(1,0,0,1,102.651,7.76487)">
                        <path d="M43.212,13.34L46.2,13.34C47.365,13.34 48.229,13.513 48.793,13.859C49.358,14.205 49.64,14.743 49.64,15.473C49.64,15.954 49.517,16.364 49.271,16.704C49.025,17.044 48.7,17.262 48.298,17.36L48.298,17.419C48.829,17.559 49.214,17.794 49.452,18.122C49.691,18.45 49.81,18.876 49.81,19.399C49.81,20.176 49.518,20.789 48.934,21.236C48.35,21.683 47.554,21.907 46.546,21.907L43.212,21.907L43.212,13.34ZM45.527,16.628L46.224,16.628C46.556,16.628 46.813,16.559 46.994,16.422C47.176,16.286 47.267,16.083 47.267,15.813C47.267,15.333 46.904,15.092 46.177,15.092L45.527,15.092L45.527,16.628ZM45.527,18.321L45.527,20.12L46.341,20.12C47.064,20.12 47.425,19.815 47.425,19.206C47.425,18.92 47.328,18.702 47.135,18.549C46.942,18.397 46.661,18.321 46.294,18.321L45.527,18.321Z" style="fill:none;stroke:rgb(9,66,163);stroke-width:2px;"/>
                    </g>
                    <g transform="matrix(1,0,0,1,102.651,7.76487)">
                        <path d="M55.172,21.907L54.885,21.081L54.75,21.081C54.559,21.385 54.292,21.619 53.95,21.781C53.608,21.943 53.207,22.024 52.746,22.024C52.016,22.024 51.447,21.812 51.041,21.388C50.635,20.964 50.432,20.366 50.432,19.592L50.432,15.268L52.723,15.268L52.723,18.895C52.723,19.329 52.784,19.657 52.907,19.879C53.03,20.102 53.232,20.213 53.514,20.213C53.908,20.213 54.189,20.058 54.357,19.748C54.525,19.437 54.609,18.913 54.609,18.174L54.609,15.268L56.9,15.268L56.9,21.907L55.172,21.907Z" style="fill:none;stroke:rgb(9,66,163);stroke-width:2px;"/>
                    </g>
                    <g transform="matrix(1,0,0,1,102.651,7.76487)">
                        <path d="M63.906,15.268L63.906,16.376L62.998,16.71C63.123,16.936 63.185,17.2 63.185,17.501C63.185,18.215 62.934,18.77 62.432,19.165C61.931,19.559 61.181,19.756 60.185,19.756C59.939,19.756 59.744,19.741 59.599,19.71C59.545,19.811 59.517,19.907 59.517,19.997C59.517,20.11 59.609,20.197 59.793,20.257C59.976,20.318 60.217,20.348 60.514,20.348L61.615,20.348C63.103,20.348 63.847,20.975 63.847,22.229C63.847,23.038 63.503,23.667 62.813,24.116C62.124,24.565 61.156,24.79 59.91,24.79C58.969,24.79 58.243,24.632 57.733,24.318C57.223,24.003 56.969,23.551 56.969,22.961C56.969,22.169 57.461,21.657 58.445,21.426C58.242,21.34 58.065,21.202 57.915,21.01C57.764,20.819 57.689,20.629 57.689,20.442C57.689,20.235 57.746,20.052 57.859,19.894C57.972,19.736 58.209,19.547 58.568,19.329C58.224,19.176 57.954,18.938 57.757,18.614C57.559,18.29 57.461,17.895 57.461,17.43C57.461,16.708 57.707,16.147 58.199,15.749C58.691,15.35 59.394,15.151 60.308,15.151C60.43,15.151 60.639,15.165 60.935,15.192C61.232,15.219 61.451,15.245 61.592,15.268L63.906,15.268ZM58.902,22.733C58.902,22.92 59.004,23.072 59.207,23.187C59.41,23.302 59.681,23.36 60.021,23.36C60.576,23.36 61.02,23.291 61.354,23.152C61.688,23.013 61.855,22.835 61.855,22.616C61.855,22.44 61.754,22.316 61.551,22.244C61.347,22.171 61.056,22.135 60.678,22.135L59.781,22.135C59.535,22.135 59.327,22.193 59.157,22.308C58.987,22.423 58.902,22.565 58.902,22.733ZM59.623,17.442C59.623,18.122 59.859,18.461 60.332,18.461C60.551,18.461 60.72,18.378 60.839,18.21C60.958,18.042 61.017,17.79 61.017,17.454C61.017,16.766 60.789,16.422 60.332,16.422C59.859,16.422 59.623,16.762 59.623,17.442Z" style="fill:none;stroke:rgb(9,66,163);stroke-width:2px;"/>
                    </g>
                    <g transform="matrix(1,0,0,1,102.651,7.76487)">
                        <path d="M70.654,18.573C70.654,19.659 70.362,20.505 69.778,21.113C69.194,21.72 68.376,22.024 67.326,22.024C66.318,22.024 65.516,21.713 64.92,21.092C64.325,20.471 64.027,19.631 64.027,18.573C64.027,17.491 64.319,16.65 64.903,16.05C65.487,15.451 66.306,15.151 67.361,15.151C68.013,15.151 68.589,15.29 69.089,15.567C69.589,15.844 69.975,16.242 70.247,16.759C70.518,17.277 70.654,17.881 70.654,18.573ZM66.353,18.573C66.353,19.143 66.429,19.578 66.581,19.877C66.734,20.175 66.99,20.325 67.349,20.325C67.705,20.325 67.956,20.175 68.102,19.877C68.248,19.578 68.322,19.143 68.322,18.573C68.322,18.006 68.247,17.579 68.099,17.29C67.951,17.001 67.697,16.856 67.337,16.856C66.986,16.856 66.734,17 66.581,17.287C66.429,17.574 66.353,18.003 66.353,18.573Z" style="fill:none;stroke:rgb(9,66,163);stroke-width:2px;"/>
                    </g>
                    <g transform="matrix(1,0,0,1,102.651,7.76487)">
                        <path d="M43.212,13.34L46.2,13.34C47.365,13.34 48.229,13.513 48.793,13.859C49.358,14.205 49.64,14.743 49.64,15.473C49.64,15.954 49.517,16.364 49.271,16.704C49.025,17.044 48.7,17.262 48.298,17.36L48.298,17.419C48.829,17.559 49.214,17.794 49.452,18.122C49.691,18.45 49.81,18.876 49.81,19.399C49.81,20.176 49.518,20.789 48.934,21.236C48.35,21.683 47.554,21.907 46.546,21.907L43.212,21.907L43.212,13.34ZM45.527,16.628L46.224,16.628C46.556,16.628 46.813,16.559 46.994,16.422C47.176,16.286 47.267,16.083 47.267,15.813C47.267,15.333 46.904,15.092 46.177,15.092L45.527,15.092L45.527,16.628ZM45.527,18.321L45.527,20.12L46.341,20.12C47.064,20.12 47.425,19.815 47.425,19.206C47.425,18.92 47.328,18.702 47.135,18.549C46.942,18.397 46.661,18.321 46.294,18.321L45.527,18.321Z" style="fill:white;fill-rule:nonzero;"/>
                        <path d="M55.172,21.907L54.885,21.081L54.75,21.081C54.559,21.385 54.292,21.619 53.95,21.781C53.608,21.943 53.207,22.024 52.746,22.024C52.016,22.024 51.447,21.812 51.041,21.388C50.635,20.964 50.432,20.366 50.432,19.592L50.432,15.268L52.723,15.268L52.723,18.895C52.723,19.329 52.784,19.657 52.907,19.879C53.03,20.102 53.232,20.213 53.514,20.213C53.908,20.213 54.189,20.058 54.357,19.748C54.525,19.437 54.609,18.913 54.609,18.174L54.609,15.268L56.9,15.268L56.9,21.907L55.172,21.907Z" style="fill:white;fill-rule:nonzero;"/>
                        <path d="M63.906,15.268L63.906,16.376L62.998,16.71C63.123,16.936 63.185,17.2 63.185,17.501C63.185,18.215 62.934,18.77 62.432,19.165C61.931,19.559 61.181,19.756 60.185,19.756C59.939,19.756 59.744,19.741 59.599,19.71C59.545,19.811 59.517,19.907 59.517,19.997C59.517,20.11 59.609,20.197 59.793,20.257C59.976,20.318 60.217,20.348 60.514,20.348L61.615,20.348C63.103,20.348 63.847,20.975 63.847,22.229C63.847,23.038 63.503,23.667 62.813,24.116C62.124,24.565 61.156,24.79 59.91,24.79C58.969,24.79 58.243,24.632 57.733,24.318C57.223,24.003 56.969,23.551 56.969,22.961C56.969,22.169 57.461,21.657 58.445,21.426C58.242,21.34 58.065,21.202 57.915,21.01C57.764,20.819 57.689,20.629 57.689,20.442C57.689,20.235 57.746,20.052 57.859,19.894C57.972,19.736 58.209,19.547 58.568,19.329C58.224,19.176 57.954,18.938 57.757,18.614C57.559,18.29 57.461,17.895 57.461,17.43C57.461,16.708 57.707,16.147 58.199,15.749C58.691,15.35 59.394,15.151 60.308,15.151C60.43,15.151 60.639,15.165 60.935,15.192C61.232,15.219 61.451,15.245 61.592,15.268L63.906,15.268ZM58.902,22.733C58.902,22.92 59.004,23.072 59.207,23.187C59.41,23.302 59.681,23.36 60.021,23.36C60.576,23.36 61.02,23.291 61.354,23.152C61.688,23.013 61.855,22.835 61.855,22.616C61.855,22.44 61.754,22.316 61.551,22.244C61.347,22.171 61.056,22.135 60.678,22.135L59.781,22.135C59.535,22.135 59.327,22.193 59.157,22.308C58.987,22.423 58.902,22.565 58.902,22.733ZM59.623,17.442C59.623,18.122 59.859,18.461 60.332,18.461C60.551,18.461 60.72,18.378 60.839,18.21C60.958,18.042 61.017,17.79 61.017,17.454C61.017,16.766 60.789,16.422 60.332,16.422C59.859,16.422 59.623,16.762 59.623,17.442Z" style="fill:white;fill-rule:nonzero;"/>
                        <path d="M70.654,18.573C70.654,19.659 70.362,20.505 69.778,21.113C69.194,21.72 68.376,22.024 67.326,22.024C66.318,22.024 65.516,21.713 64.92,21.092C64.325,20.471 64.027,19.631 64.027,18.573C64.027,17.491 64.319,16.65 64.903,16.05C65.487,15.451 66.306,15.151 67.361,15.151C68.013,15.151 68.589,15.29 69.089,15.567C69.589,15.844 69.975,16.242 70.247,16.759C70.518,17.277 70.654,17.881 70.654,18.573ZM66.353,18.573C66.353,19.143 66.429,19.578 66.581,19.877C66.734,20.175 66.99,20.325 67.349,20.325C67.705,20.325 67.956,20.175 68.102,19.877C68.248,19.578 68.322,19.143 68.322,18.573C68.322,18.006 68.247,17.579 68.099,17.29C67.951,17.001 67.697,16.856 67.337,16.856C66.986,16.856 66.734,17 66.581,17.287C66.429,17.574 66.353,18.003 66.353,18.573Z" style="fill:white;fill-rule:nonzero;"/>
                    </g>
                </g>
            </g>
        </g>
    </g>
</svg>
