<?xml version="1.0" standalone="no"?>
<!DOCTYPE svg PUBLIC "-//W3C//DTD SVG 20010904//EN"
 "http://www.w3.org/TR/2001/REC-SVG-20010904/DTD/svg10.dtd">
<svg version="1.0" xmlns="http://www.w3.org/2000/svg"
 width="260.000000pt" height="260.000000pt" viewBox="0 0 260.000000 260.000000"
 preserveAspectRatio="xMidYMid meet">
<metadata>
Created by potrace 1.11, written by Peter Selinger 2001-2013
</metadata>
<g transform="translate(0.000000,260.000000) scale(0.100000,-0.100000)"
fill="#000000" stroke="none">
<path d="M1 2078 l1 -523 18 68 c66 249 201 480 381 653 130 124 294 228 458
291 l86 32 -472 1 -473 0 1 -522z"/>
<path d="M1768 2575 c337 -130 583 -366 722 -694 45 -105 69 -209 80 -341 13
-157 3 -192 -21 -73 -68 335 -290 618 -594 759 -93 43 -196 70 -315 85 -278
33 -572 -70 -763 -268 -119 -123 -188 -243 -228 -393 -29 -108 -31 -281 -5
-385 47 -193 178 -365 347 -455 236 -125 505 -77 663 120 15 19 23 26 18 15
-17 -34 -91 -113 -128 -136 -51 -31 -33 -36 20 -5 59 34 138 114 173 173 34
58 40 43 13 -31 -26 -67 -78 -138 -143 -195 -55 -47 -49 -55 9 -13 84 61 150
154 196 277 l18 50 -5 -45 c-7 -62 -66 -178 -121 -239 -25 -28 -41 -51 -35
-51 22 0 122 113 167 187 39 67 45 73 40 43 -12 -67 -69 -162 -150 -247 -43
-46 -74 -83 -70 -83 26 0 125 71 195 137 43 42 79 73 79 69 0 -14 -34 -72 -71
-122 -50 -68 -128 -136 -219 -191 -84 -50 -59 -49 40 3 182 95 326 283 367
481 22 103 37 119 28 28 -9 -93 -46 -205 -92 -285 -21 -36 -78 -107 -128 -159
-90 -94 -90 -94 -31 -50 119 88 205 218 262 394 36 111 47 90 15 -30 -35 -134
-98 -240 -220 -370 -77 -81 -75 -82 13 -10 57 47 151 169 197 255 17 33 34 58
36 56 4 -3 -23 -86 -52 -161 -4 -11 16 10 46 47 29 37 55 65 57 63 7 -6 -52
-126 -90 -186 -19 -30 -68 -90 -109 -134 -55 -59 -64 -71 -33 -47 100 78 200
206 259 335 33 71 74 223 76 275 0 15 5 36 10 47 15 34 -1 -123 -22 -205 -23
-89 -114 -281 -175 -366 -24 -34 -89 -105 -145 -158 -56 -53 -99 -96 -96 -96
3 0 30 14 58 31 314 185 505 541 487 909 -3 69 -2 86 6 69 6 -13 10 -87 10
-164 0 -115 -4 -154 -22 -220 -44 -156 -103 -276 -195 -395 -73 -95 -76 -102
-12 -35 147 154 253 385 271 592 9 107 23 136 23 52 3 -232 -116 -517 -292
-706 -55 -59 -22 -44 41 18 100 99 184 229 248 383 15 38 30 64 32 58 6 -18
-26 -118 -64 -206 -19 -43 -33 -80 -31 -82 2 -2 22 29 44 69 50 87 94 210 122
340 20 93 21 122 21 867 l0 770 -447 0 -448 -1 63 -24z"/>
<path d="M1 488 l-1 -488 382 0 383 0 -79 45 c-324 185 -550 474 -660 845
l-25 85 0 -487z"/>
<path d="M2572 743 c-83 -285 -311 -568 -574 -714 l-53 -29 328 0 327 0 0 410
c0 226 -1 410 -3 410 -2 0 -13 -35 -25 -77z"/>
</g>
</svg>
